<svg fill="none" xmlns="http://www.w3.org/2000/svg" viewBox="0 0 141 48"><path d="M8.499 44.892c-2.322-.842-4.464-1.887-6.441-3.278-1.332-.937-2.062-2.12-2.019-3.79.064-2.475.07-4.951.088-7.427.004-.7-.063-1.4-.059-2.098.025-4.392.039-8.784.1-13.175.036-2.508-.094-5.01-.163-7.513-.008-.27-.007-.539.003-.808.009-.248.041-.515.323-.591.314-.085.52.15.655.372.424.693.918 1.33 1.448 1.94 2.208 2.545 4.658 4.78 7.786 6.167 2.459 1.09 5.05 1.672 7.698 2.037.32.045.642.081.958.146 1.506.31 2.086 1.037 2.082 2.594-.013 6.09-.04 12.18-.031 18.27.004 3.017-.077 6.035.122 9.049.061.918-.506 1.317-1.555 1.184-2.145-.273-4.21-.886-6.288-1.445-1.585-.426-3.114-1.029-4.707-1.634Z" fill="#6F6F6F"/><path d="M28.964 1.715c3.278-.402 6.44-1.056 9.614-1.636 1.38-.252 1.764.062 1.759 1.472-.013 3.476-.037 6.951-.034 10.427.009 10.29.028 20.58.042 30.87.002 1.346-.101 1.402-1.427 1.344-1.04-.045-2.015-.31-2.991-.623-.654-.21-1.007-.646-.941-1.325.23-2.392-.074-4.787.062-7.183.092-1.635-.067-3.282-.06-4.924.01-2.532.156-5.066.084-7.594-.148-5.172-.012-10.344-.128-15.514-.024-1.083-.062-1.14-1.178-1.063-4.896.336-9.8.265-14.697.155-3.97-.09-7.888-.703-11.585-2.254a16.768 16.768 0 0 1-3.633-2.085c-.245-.186-.613-.386-.391-.773.207-.363.516-.107.786-.02 2.194.698 4.464 1.01 6.743 1.181 4.275.32 8.559.282 12.837.008 1.691-.109 3.378-.303 5.138-.463Z" fill="#6F6F6F"/><path d="M19.503 9.146c3.35.233 6.625.39 9.907.034 1.588-.173 1.69-.025 1.69 1.58.003 11.99.009 23.98.014 35.969 0 1.15-.249 1.37-1.39 1.237-1.014-.119-2.026-.228-3.024-.48-.737-.186-.998-.553-.995-1.303.03-8.622.039-17.244.05-25.866a522.9 522.9 0 0 0-.022-4.85c-.01-1.09-.425-1.537-1.492-1.573a39.928 39.928 0 0 1-12.928-2.587C7.483 9.85 4.17 7.687 1.844 4.215c-.06-.09-.14-.17-.18-.267-.136-.328-.573-.677-.218-1.004.347-.319.688.1.988.29a39.65 39.65 0 0 0 10.125 4.532c2.262.656 4.573.962 6.944 1.38Zm54.659-6.268c1.048.012 2.035-.05 2.959.291 2.713 1.002 3.603 4.098 1.872 6.432-.11.148-.214.3-.339.477.464.635 1.19.934 1.676 1.52 1.656 2 2.154 4.21 1.142 6.618-1.084 2.579-3.123 3.914-5.91 4.03-1.48.062-2.964.02-4.447.01-.915-.007-1.166-.246-1.167-1.149-.005-5.659-.004-11.318.003-16.977.001-.933.19-1.079 1.145-1.163.995-.087 1.99-.099 3.066-.089Zm-1.192 8.227c-.512.14-1.382-.375-1.388.702-.016 2.69.001 5.381-.005 8.072-.001.561.275.756.803.748.97-.013 1.94-.025 2.908.012 1.526.058 2.82-.466 3.813-1.595 1.259-1.434 1.755-3.07.95-4.921-.75-1.728-1.955-2.9-3.935-3.002-.993-.052-1.992-.013-3.146-.016Zm2.234-1.656c.134-.001.268 0 .403-.002 1.65-.016 2.691-.909 2.72-2.332.028-1.46-1.178-2.599-2.785-2.611-1.047-.008-2.095.015-3.142 0-.57-.007-.835.212-.828.807.015 1.155.004 2.31-.025 3.465-.012.5.217.669.68.665.94-.007 1.88.004 2.977.008Zm25.529 5.883c.252 3.458-1.481 5.642-4.415 6.852-2.262.933-4.438.325-6.36-1.157-.183-.14-.291-.4-.588-.381-.221.19-.111.451-.137.678-.058.518-.288.912-.846.88-.552-.03-.755-.457-.77-.966-.013-.456-.009-.913-.01-1.37-.01-5.25-.018-10.5-.029-15.749-.001-.479.05-.927.57-1.14.606-.247 1.079.143 1.087.955.018 1.804.005 3.61.004 5.414v1.868c2.668-2.285 5.468-2.877 8.396-1.043 1.815 1.136 3.081 2.769 3.098 5.159Zm-5.117 5.36c1.31-.383 2.284-1.222 2.953-2.368 1.192-2.043.7-4.679-1.11-6.325-1.633-1.485-4.335-1.653-6.16-.383-1.855 1.291-2.713 3.973-1.931 6.043.903 2.393 3.666 3.78 6.248 3.033Zm28.059-10.05c.051 2.1.146 4.144.079 6.182-.047 1.401.092 2.794.031 4.191-.017.409 0 .822-.385 1.09-.472.33-1.123.042-1.222-.548-.048-.286-.047-.58-.083-1.065-2.076 1.896-4.375 2.627-6.965 1.754a6.698 6.698 0 0 1-3.772-3.126c-1.357-2.424-1.212-6.011 1.63-8.473 2.443-2.117 5.678-2.006 9.029.478.218-.398.327-.926.908-.963.336-.02.558.152.75.48Zm-1.569 6.396c.041-.938.177-1.883-.104-2.806-.78-2.56-3.924-4.166-6.505-3.17-2.831 1.094-3.911 4.043-2.967 6.686.691 1.932 2.773 3.248 4.888 3.184 2.042-.063 3.984-1.631 4.688-3.894ZM86.114 35.854c0-1.373-.001-2.666.003-3.958.004-1.053.215-1.22 1.169-.878.272.096.4-.064.565-.188 2.039-1.518 4.827-.913 6.195 1.226.858 1.342.945 2.82.194 4.224-.747 1.397-1.906 2.278-3.582 2.4-1.23.091-2.246-.353-3.334-1.17v2.875c0 .417.007.886-.551.902-.585.017-.66-.453-.661-.91-.004-1.48 0-2.961.002-4.523Zm7.215-.534c.038-.212.084-.423.11-.636.152-1.241-.513-2.545-1.547-3.044-1.274-.614-2.814-.408-3.672.491-.984 1.031-1.222 2.468-.597 3.646.59 1.113 1.583 1.64 2.778 1.631 1.347-.01 2.35-.688 2.928-2.088Zm9.449-27.928c-.001-1.185-.006-2.289-.001-3.393.003-.568.167-1.057.846-1.033.611.022.796.474.796 1.015.005 5.734.008 11.469.01 17.203 0 .581-.223 1.062-.857 1.038-.63-.024-.8-.523-.799-1.1.006-4.55.004-9.1.005-13.73Zm29.162 28.203c-1.005-3.032 1.932-6.288 5.143-5.482 1.935.486 2.954 1.853 3.459 3.583.483 1.653-.522 2.947-1.662 3.95-2.369 2.086-5.743 1.07-6.94-2.05Zm5.98-3.756c-.291-.138-.57-.309-.873-.41a3.02 3.02 0 0 0-3.677 1.536c-.646 1.304-.253 3.052.868 3.856 1.193.856 3.05.689 4.059-.366 1.297-1.357 1.19-3.074-.377-4.616Zm-65.434 3.235c-.444-2.366 1.198-4.616 3.621-5.045 2.219-.392 4.578 1.317 4.98 3.61.384 2.18-1.377 4.702-3.491 5.002-2.442.345-4.77-1.252-5.11-3.567Zm2.268-3.094c-.146.157-.308.303-.436.474-1 1.344-.785 3.275.473 4.279 1.288 1.028 3.169.85 4.289-.404.963-1.078.961-2.892-.003-3.993-1.056-1.206-2.79-1.384-4.323-.356ZM95.3 34.097c.19-2.58 2.391-4.42 4.792-4.084 2.54.355 4.207 2.722 3.807 4.934-.389 2.146-2.118 4.026-5.025 3.718-1.963-.208-3.564-2.181-3.574-4.568Zm1.216.499c.028.76.336 1.39.86 1.937.837.87 2.408 1.12 3.59.55 1.027-.495 1.968-1.973 1.735-2.955-.447-1.887-1.378-2.913-3.418-2.803-1.667.09-2.72 1.284-2.767 3.27Zm12.011-22.434c.021 2.926.05 5.778.065 8.63.003.644.06 1.38-.856 1.47-.581.055-.881-.485-.882-1.456l-.007-8.963c0-.188-.005-.377.002-.565.024-.587.184-1.131.88-1.124.757.008.86.607.86 1.21 0 .242-.038.483-.062.798Zm-23.2.25c0 2.878.003 5.677-.001 8.476 0 .266-.008.544-.084.796-.099.329-.35.563-.71.56-.385-.003-.659-.225-.782-.59a1.52 1.52 0 0 1-.053-.478c-.003-3.338-.001-6.675-.005-10.012 0-.544.14-1.002.772-1.008.603-.007.831.423.858.965.02.403.005.808.005 1.29ZM57.022 37.254c.51.006.943-.012 1.371.028.312.028.574.192.589.555.014.368-.25.565-.552.586a33.616 33.616 0 0 1-4.68-.014c-.396-.027-.488-.366-.489-.721-.001-3.611-.006-7.222-.006-10.833 0-.368.05-.732.538-.739.451-.006.606.328.639.693.042.454.022.915.023 1.373.004 2.667.003 5.335.01 8.003.002 1.052.026 1.069 1.103 1.068l1.454.001Zm56.795-.96c-.088.743.2 1 .872.967.887-.044 1.777-.022 2.666-.024.45-.001.948.032.959.608.012.592-.511.624-.943.629-1.267.012-2.533-.002-3.8-.01-.651-.003-.884-.356-.884-.982.001-3.258-.021-6.516-.027-9.774a7.964 7.964 0 0 1 .067-1.124c.041-.286.211-.5.541-.497.335.002.473.23.519.515.034.211.034.43.034.645 0 2.99-.002 5.981-.004 9.047Zm-49.2 1.67c-.94-2.06-1.857-4.063-2.743-6.08-.161-.367-.646-.848.011-1.17.685-.336.974.225 1.199.722.596 1.32 1.16 2.655 1.745 3.98.072.166.103.368.424.514.446-1.01.89-2.022 1.339-3.03.262-.59.517-1.183.803-1.76.202-.409.557-.635.995-.416.42.211.267.595.122.92-.893 2.017-1.782 4.035-2.697 6.04-.235.514-.582.909-1.198.28Zm61.572-5.38c.269-.563.508-1.074.774-1.571.195-.364.526-.474.891-.3.392.186.304.533.17.839a936.702 936.702 0 0 1-2.734 6.193c-.134.3-.345.57-.726.543-.342-.024-.48-.29-.607-.573-.901-2.008-1.809-4.013-2.716-6.018-.153-.34-.416-.724.045-.989.453-.259.88-.047 1.089.377.426.863.782 1.76 1.169 2.64.331.756.665 1.51 1.079 2.448a737.721 737.721 0 0 0 1.566-3.589Zm2.572 5.766c-.338-.254-.388-.57-.407-.9-.11-1.964.17-3.927.036-5.893-.023-.332.137-.652.467-.79.51-.213.683.27.939.546.33-.192.619-.384.929-.534.319-.156.583-.023.758.26.191.312.093.602-.207.757-1.375.712-1.711 1.885-1.591 3.324.067.803.024 1.616.009 2.424-.01.557-.205.956-.933.806Zm-24.081-4.972c-.001-.586-.01-1.097-.002-1.608.006-.394-.084-.843.416-1.031.454-.171.674.196.926.453.337-.006.529-.273.793-.39.362-.161.7-.161.905.222.179.335.074.654-.252.831-1.285.696-1.643 1.82-1.566 3.19.046.832.005 1.668.013 2.502.005.452-.114.843-.627.864-.562.022-.609-.412-.609-.844.002-1.372.002-2.743.003-4.189Zm-33.59-1.092c-.672.623-.953 1.33-.916 2.2.042.992.01 1.988.01 2.982 0 .45-.02.936-.623.92-.516-.014-.611-.446-.612-.88-.003-1.934-.003-3.867-.001-5.8 0-.387.045-.798.457-.95.468-.174.643.248.873.575.272-.167.535-.34.808-.493.353-.198.696-.18.908.19.22.386.018.656-.33.857-.184.106-.354.238-.573.4Zm49.477 5.12c-.023.57-.164 1.035-.756 1.002-.572-.03-.564-.532-.599-.972-.152-1.874.15-3.752-.065-5.625-.015-.13.015-.267.036-.4.061-.377.233-.683.654-.691.425-.01.588.285.662.67.154.805-.034 1.605-.007 2.408.04 1.179.053 2.358.075 3.608Zm-60.706.706c-.226-1.182-.102-2.314-.126-3.442-.023-1.05-.026-2.1-.022-3.15.002-.412.155-.774.618-.812.488-.04.672.329.678.732.028 2.072.06 4.144.025 6.215-.013.753-.468.917-1.173.457Zm24.464-29.91c-.398.121-.76.229-.993-.15-.245-.399.1-.648.314-.898.684-.8 1.253-1.792 2.572-1.582.29.046.625-.012.73.347.092.315-.166.478-.381.638-.729.542-1.458 1.081-2.242 1.644Zm22.6-1.686c.85-.527 1.48-.417 1.874.28.359.638.092 1.478-.563 1.77a1.231 1.231 0 0 1-1.65-.685c-.192-.5-.091-.945.339-1.365ZM60.788 29.76c-.937.128-1.461-.275-1.285-.932.104-.385.345-.681.756-.744.43-.067.726.192.897.545.21.434.14.834-.368 1.131Zm59.981-.842c-.063.623-.387.957-.941.939-.415-.014-.772-.245-.866-.7-.095-.456.137-.802.521-.981.688-.32 1.031.115 1.286.742Z" fill="#6F6F6F"/></svg>