<svg fill="none" xmlns="http://www.w3.org/2000/svg" viewBox="0 0 291 48"><path d="M276.73 2.644v9.12c-.472-.751-.743-1.091-.927-1.484-.69-1.466-1.284-2.967-2.027-4.399-.743-1.431-2.019-2.112-3.644-2.103-1.057 0-2.124-.061-3.172.044-2.727.253-4.737 2.513-4.78 5.27-.044 2.916 1.922 5.255 4.789 5.447 2.315.148 4.649.043 6.973.06 4.728.027 8.844 1.58 12.182 4.984 4.544 4.626 5.968 11.677 3.356 17.62-2.806 6.397-7.813 9.766-14.83 10.098-.42.017-.848 0-1.267 0H6.676c-.637 0-1.275.035-1.905-.009-2.717-.2-4.753-2.347-4.77-4.991-.018-2.749 2.079-4.957 4.902-5.053 1.817-.061 3.635-.009 5.592-.009V3.83c-.655-.043-1.267-.078-1.87-.14-.507-.043-1.17.167-1.293-.863.446-.079.883-.227 1.328-.227 5.427 0 10.854-.026 16.29.035 3.049.035 6.029.567 8.887 1.667 4.072 1.57 6.868 4.39 8.022 8.63 1.363 5.01 1.302 10.028-.254 14.994-1.11 3.544-3.373 6.118-6.676 7.811-3.924 2.008-8.153 2.653-12.497 2.688-5.287.044-10.573.009-15.86.018-.638 0-1.276-.035-1.897.06-1.844.271-3.233 1.825-3.294 3.596-.061 1.824 1.153 3.448 2.988 3.84.743.157 1.538.14 2.316.14h266.287c.918 0 1.835.035 2.744-.035 4.99-.384 8.651-4.398 8.52-9.294-.131-4.8-3.906-8.623-8.8-8.824-2.324-.096-4.649 0-6.982-.026-7.244-.06-12.811-5.585-12.802-12.672.009-6.955 5.593-12.489 12.715-12.567 2.665-.026 5.339 0 8.371 0l-.008-.017ZM20.842 37.222c1.154 0 2.132.078 3.102-.019 3.146-.296 5.4-1.885 6.598-4.835.367-.907.664-1.858.856-2.818.857-4.442.927-8.937.656-13.44-.158-2.601-.402-5.176-1.355-7.645-.944-2.435-2.586-4.024-5.173-4.451-1.494-.245-3.024-.253-4.675-.384v33.582l-.009.009Z" fill="#6F6F6F"/><path d="M192.866 36.986c.62.218 1.171.42 1.826.646-.641.489-2.188.733-4.64.733-1.625 0-3.242.026-4.868 0-1.573-.035-3.163.148-4.937-.174.699-1.406 1.984-.515 2.788-1.283V15.5c-.726-.925-2.071.052-2.657-1.048 1.337-.602 7.699-.785 12.226-.357.113.898.227 1.824.419 3.272 1.958-3.037 4.518-4.032 7.585-3.918 3.164.113 5.313 1.632 6.45 4.835.297-.402.506-.629.655-.882 2.263-3.735 6.685-5.088 10.644-3.246 1.634.759 2.735 2.033 3.207 3.726.358 1.274.559 2.618.585 3.945.07 4.364.035 8.727.035 13.09v2.191c1.049.149 1.949.28 3.103.446-.747.546-2.346.82-4.798.82-1.625 0-3.242.026-4.868 0-1.572-.035-3.172.157-4.727-.149-.035-.148-.07-.305-.114-.453.542-.27 1.084-.541 1.765-.873v-8.78c0-2.749 0-5.49-.017-8.238 0-.768-.035-1.554-.184-2.313-.34-1.684-1.468-2.077-2.691-.83-.708.725-1.241 1.703-1.608 2.663-.35.899-.507 1.92-.516 2.889-.052 4.852-.026 9.713-.026 14.618.621.27 1.215.532 1.905.829-.262.279-.402.55-.542.558-3.941.044-7.891.061-11.832.061-.306 0-.612-.165-.987-.654.507-.218 1.013-.445 1.573-.68.035-.062.157-.184.157-.306 0-6.048-.017-12.105-.035-18.153 0-.21-.026-.419-.052-.628-.088-.786-.166-1.763-1.101-1.78-.656-.01-1.495.453-1.949.977-1.547 1.806-1.844 4.067-1.87 6.344-.035 3.945-.018 7.881-.009 11.826 0 .55.052 1.108.079 1.693l.026-.009Zm-65.883 1.29h-14.454c.026-1.344 1.25-.654 1.695-1.143-.297-1.859-4.387-10.185-5.811-11.511-.507 3.944-.131 7.662-.253 11.441.873.21 1.573.375 2.656.637-.585.375-.821.663-1.066.663-4.439.027-8.879.027-13.318 0-.227 0-.454-.2-.69-.733.882-.166 1.756-.331 2.752-.515V1.246c-1.004-.148-1.913-.288-2.822-.419 1.24-1.221 2.648-.68 3.959-.776 1.328-.096 2.674-.026 4.011-.026h4.465v24.829c4.238-3.099 7.743-6.232 11.413-9.312-1.241-1.091-2.919.226-3.968-1.083 1.626-.689 8.547-.68 10.059-.034-.149.811-.83.68-1.311.61-1.704-.235-2.962.49-4.142 1.606-1.224 1.152-2.543 2.208-3.976 3.448.349.768.655 1.527 1.031 2.26 2.237 4.39 4.492 8.762 6.711 13.16.525 1.04.979 2.051 2.412 1.938.105 0 .245.297.638.812l.009.017Zm116.35-.042c-.201-.916-.367-1.728-.577-2.697-.28.201-.524.315-.673.49-2.613 3.089-8.214 3.84-11.509 1.535-1.669-1.17-2.499-2.854-2.779-4.8-.183-1.248-.209-2.522-.227-3.788-.035-4.363-.026-8.727-.043-13.1 0-.139-.062-.27-.14-.566-.822-.192-1.713-.393-2.98-.69 1.581-1.134 2.988-.558 4.291-.654 1.328-.105 2.674-.027 4.019-.027h4.501v2.392c0 4.93-.009 9.861.009 14.792 0 1.126.087 2.252.183 3.37.07.81.358 1.544 1.223 1.806.883.262 1.687.017 2.316-.655 1.11-1.196 1.582-2.662 1.599-4.25.044-2.68.018-5.35.018-8.03v-8.046c-.848-.227-1.573-.427-2.622-.715 1.582-.76 8.32-.934 12.208-.463v23.04c.988.044 1.739.105 2.491.105 5.427 0 10.862 0 16.289.017.603 0 1.415-.305 1.721.664-1.511.514-24.232.715-29.309.27h-.009Zm-103.87-22.979c-2.561-.2-4.448.672-5.523 2.688-1.276 2.418-2.246 4.992-3.365 7.488-.253.567-.166 1.475-1.459 1.397-.018-4.216.166-8.387.454-12.524 1.53-.419 27.134-.559 30.219-.148.157 4.18.419 8.404.419 12.68-1.284.044-1.258-.811-1.503-1.405-.83-2.016-1.616-4.05-2.482-6.048a9.327 9.327 0 0 0-1.205-1.972c-1.268-1.606-2.919-2.365-5.121-2.13v21.792c1.407.096 2.752.184 4.098.271-.017 1.143-.664 1.038-1.197 1.038-2.395.018-4.789 0-7.192 0h-9.088c-.525 0-1.206.158-1.154-1.047 1.311-.087 2.657-.174 4.107-.262V15.264l-.008-.009ZM69.771 25.299H55.614c-.305 3.02-.148 5.795.778 8.483.857 2.47 2.578 3.578 5.182 3.42 3.094-.182 5.287-1.684 6.59-4.511.288-.62.244-1.563 1.284-1.755.113.245.306.454.262.594-.874 3.063-2.534 5.542-5.689 6.572-3.941 1.291-7.909 1.17-11.788-.323-3.033-1.161-4.947-3.43-5.96-6.441-1.005-3.002-1.136-6.083-.35-9.155 1.145-4.468 4.23-7 8.538-8.186 2.412-.663 4.894-.655 7.34-.245 4.693.777 7.35 3.579 7.944 8.283.122.96.017 1.955.017 3.273l.01-.01Zm-9-1.283c-.167-2.636-.263-5.01-.481-7.383-.096-1.03-.586-1.894-1.81-1.999-1.065-.087-1.922.454-2.35 1.72-.83 2.495-.778 5.052-.48 7.653h5.111l.01.009Zm34.21 6.713c-.611 3.299-2.132 6.039-5.487 7.26-3.915 1.432-7.9 1.345-11.737-.375-2.814-1.256-4.5-3.552-5.313-6.484-.786-2.828-.821-5.716-.21-8.57.874-4.04 3.365-6.764 7.245-8.134 3.338-1.178 6.781-1.265 10.207-.428 1.066.262 2.132.786 3.023 1.432 2.237 1.605 2.91 5.01 1.6 7.418-.813 1.51-2.526 2.26-4.536 2.007-1.905-.244-3.277-1.318-3.591-3.054-.166-.925-.027-1.912-.027-2.933.726-.157 1.25-.262 1.704-.358.944-1.187.333-3.333-.996-3.796-1.346-.471-2.91.044-3.609 1.414-.524 1.047-1.005 2.243-1.057 3.386-.184 3.788-.166 7.584-.201 11.38 0 .559.105 1.126.218 1.676.367 1.859.97 3.622 3.041 4.19 2.325.645 4.562.313 6.231-1.51.926-1.013 1.486-2.357 2.193-3.561.254-.428.463-.873.7-1.3l.602.34Zm70.227-15.501-2.832-.462c1.26-1.23 2.675-.698 3.985-.786 1.399-.096 2.814-.026 4.221-.026h4.431V37.09c1.066.175 1.905.305 3.163.506-1.564 1.213-2.91.664-4.142.75-1.258.097-2.534.018-3.801.018-1.337 0-2.683.053-4.011-.017-1.198-.061-2.474.349-3.636-.768.822-.166 1.643-.323 2.622-.524V15.22v.008Zm4.936-4.556c-4.238.026-5.409-3.029-4.981-5.987.245-1.71 1.206-2.967 2.945-3.482 1.678-.498 3.338-.41 4.938.253 1.599.663 2.56 2.356 2.438 4.285-.123 1.911-.717 3.613-2.701 4.363-.83.315-1.756.393-2.639.576v-.008Z" fill="#6F6F6F"/></svg>