<svg width="404" height="404" fill="none" xmlns="http://www.w3.org/2000/svg"><path d="M339 311.8c.1-2.4.5-8.8 1-14.3 2.4-26.4-4.4-53.4-18.8-74.7-4.9-7.3-4.9-7.3-21.5-12.8-16.6-5.5-16.6-5.5-16.7-9.2 0-3.6-.1-3.7-5.2-4.8-15.5-3.4-30.6-1.9-49.9 5-6.2 2.2-12.7 4-14.4 4-3.2 0-3.2 0-3.9-10.9-.3-6-1.5-14.4-2.6-18.6-3.6-14-4.4-13.2 13.3-13.8 16.7-.5 24.3-2.2 37.4-8.2 8.6-4 16.8-9.4 15.6-10.4-.4-.4-3.3-1.8-6.3-3-9.6-3.8-20.8-11.1-26-16.7-4.2-4.6-5.4-7-7.6-14.2-7.3-24.3-17.8-35.8-39.9-43.7-2.7-1-6.7-3.4-8.8-5.4C179 54.8 173 46.6 173 44.3c0-1.9.8-2.1 9.3-2.7 31.9-2.2 50.6-.6 72.9 6.3 47.9 15 84.3 46.6 105.3 91.5 14.7 31.4 19.1 71.5 11.9 107.6-2.3 11.8-8.1 28.5-13.7 40-6.1 12.4-16.7 29-18.4 29-.9 0-1.3-1.5-1.3-4.2Zm-306.9-58c-2.8-14.6-3.5-22.9-3.5-43.3-.1-18.8.3-23.6 2.1-33 6.7-32.8 22.2-62.2 45.2-85.4C86.9 80.9 94.4 74 95.4 74c.2 0 1.2 2.4 2.2 5.3 2.2 6.9 6.4 15 10.8 21.2 2.4 3.3 3.6 6.1 3.6 8.2 0 3-.5 3.5-5.8 6.2-11.8 6-21.3 14.4-30.1 26.9C71 149 71 149 78 149s7 0 7 3.4c0 3-.6 3.7-4.5 6-2.5 1.5-7.2 5-10.6 7.7-19.6 16.4-33.8 52.7-33.9 86.7 0 4.7-.3 6.2-1.4 6.2-1 0-1.8-1.8-2.5-5.2Z" fill="#333"/><path d="M218 117.5c0-3.3.2-3.5 3.5-3.5s3.5.2 3.5 3.5-.2 3.5-3.5 3.5-3.5-.2-3.5-3.5Zm-28-18c0-3.3.2-3.5 3.5-3.5s3.5.2 3.5 3.5-.2 3.5-3.5 3.5-3.5-.2-3.5-3.5Z" fill="#333"/><path d="M291.1 373c8.5-12.5 13.4-29.2 11-37.8-1.6-5.9-6.7-10.7-13-12.2-10.1-2.4-21.6 1.2-58.1 18.4-20.7 9.8-37.2 15.7-50.5 18.2-10.3 1.9-36.8 1.6-46.5-.6-23.2-5.1-45.7-15-54.5-24-5-5.1-5-5.1-5-24.8 0-15.5.4-21.3 1.8-27.4 1.8-7.8 1.8-7.8 5.3-7.8 2.6 0 3.4.4 3.4 1.8.1 1.4.5 1.2 2.3-.9 14.2-16.9 18.2-21.5 18.7-21.9.3-.3 4.2-4.8 8.5-10 7.7-9.3 7.8-9.5 5.2-9.8-2.3-.3-2.7-.8-2.7-3.8 0-2.4.5-3.4 1.5-3.4.8 0 1.5-.4 1.5-.9 0-1.1 9.8-5.4 18.1-7.9 8.2-2.5 24.9-4.5 30.6-3.6 4 .6 4.3.8 4.2 3.8 0 2.6-.8 3.6-4.6 6.1-2.6 1.7-5.8 4.6-7.2 6.5-2.9 3.9-2.3 3.6 6-3.2 7.3-5.9 25.7-17.9 34.3-22.3 7.8-4 7.8-4 7.3-14.5-.3-5.8-1.3-13-2.2-16-.9-3-1.9-7.2-2.2-9.2-.5-3.8-.5-3.8 3-3.8 2.2 0 3.7.6 4.1 1.5.4 1-.1 1.5-1.5 1.5-1.6 0-1.9.4-1.4 1.8 1.8 4.8 3.5 14.8 4.1 24.5.4 5.9.8 10.7.9 10.7.1 0 5.2-1.8 11.4-4 18.2-6.5 35.9-8.6 50.7-5.9 7.8 1.4 25.4 7.1 25.4 8.2 0 .6-2.5.7-5.8.3-11.6-1.3-9.4.5 7.5 6.2 16.6 5.7 16.6 5.7 21.5 13 15 22.2 21.5 49.7 18.9 80-.6 6.8-.9 12.7-.6 13.2.3.4-.3 1.8-1.3 3.1s-3.1 5.6-4.6 9.4c-6.8 17.2-19.9 34.8-33.6 45-3.3 2.5-14.3 8.5-15.5 8.5-.3 0 1.3-2.7 3.6-6Zm43.4-121.1c-2.1-8.2-12.5-29.7-14.7-30.7-.5-.2-.8-.9-.8-1.5 0-.7-1-1.8-2.2-2.6-3.6-2.3-29.8-11.1-35.2-11.9-5.1-.7-5.1-.7-5.1-4.9s0-4.2-6.4-4.9c-9.1-1-22.3.1-31.1 2.6-9.3 2.6-23.1 8-22.6 8.9.8 1.2 20.8 10.5 27.5 12.8 2.5.8 9.6 3.7 15.6 6.5 14.1 6.3 14.3 6.4 32 13.8 8.3 3.4 16.8 7 19 8 2.2 1 7.6 3.2 12 5 4.4 1.7 9.1 3.7 10.5 4.4 1.4.7 2.6 1.2 2.8 1 .2-.1-.4-3-1.3-6.5Z" fill="url(#Frame__a)"/><path d="M34 261.1c-1.1-2.1-1.4-18.1-.4-21.8.4-1.3 1.3-2.3 2-2.3 1.1 0 1.4 2.6 1.4 13 0 12.7-.7 15.3-3 11.1Zm.5-30.7c1.6-13.3 9.3-37.2 12.3-38.2 2.1-.7 1.4 4.9-1.8 12.9-3 7.8-7 23.9-7 28.4 0 1.9-.5 2.5-2.1 2.5-2 0-2.1-.3-1.4-5.6ZM49 186.1c0-.5 2.3-4.3 5-8.5 5.7-8.4 13.5-15.9 22.4-21.4 6-3.7 6-3.7 2.5-4.3-1.9-.4-2.6-.7-1.6-.8.9 0 1.7-.8 1.7-1.6 0-1.1 1.1-1.5 4-1.5 3.9 0 4 .1 4 3.5 0 2.5-.5 3.8-1.7 4.2-1 .4-2.4 1.3-3.1 2-.7.7-2 1.3-2.8 1.3-.8 0-1.4.5-1.4 1 0 .6-.6 1-1.4 1-.8 0-1.6.7-2 1.5-.3.8-1.5 1.5-2.6 1.5s-2 .6-2 1.3c0 1.6-8.2 9.7-9.8 9.7-.7 0-1.2.9-1.2 2s-.4 2-1 2c-.5 0-1 .7-1 1.5s-.4 1.5-.9 1.5-1.2 1.1-1.5 2.5c-.5 1.8-1.3 2.5-3.1 2.5-1.4 0-2.5-.4-2.5-.9Zm179-22.7c0-1.6 1.2-2.2 6.8-3.1 8.6-1.5 19.4-4.5 20.8-5.8.6-.5 3.5-2.1 6.5-3.5s5.6-2.8 5.7-3.2c.2-.5.8-.8 1.3-.8s1.7-.8 2.7-1.8c1.5-1.5 1.6-2.1.6-3-.7-.7-2.2-1.2-3.4-1.2-1.1 0-2-.4-2-1 0-.5-.9-1-1.9-1-3 0-5.1-1.1-5.1-2.6 0-.8-1-1.4-2.4-1.4s-3.1-.6-3.8-1.4c-.8-.7-2.4-1.7-3.6-2-1.2-.4-2.2-1.4-2.2-2.2 0-.8-.8-1.4-1.8-1.4-2 0-7.2-4.9-7.2-6.8 0-.7-.4-1.2-1-1.2-.5 0-1-1.3-1-3 0-1.8-.5-3-1.3-3-1.2 0-5.7-13-5.7-16.5 0-.8-.4-1.5-.9-1.5s-1.7-2-2.8-4.5c-1-2.5-2.1-4.5-2.5-4.5-.5 0-.8-.9-.8-2s-.6-2-1.3-2c-1.6 0-6.7-5.2-6.7-6.8 0-.7-.9-1.2-2-1.2s-2-.4-2-.8-1.6-1.4-3.5-2.1c-1.9-.7-3.5-1.9-3.5-2.7 0-.9-1.1-1.4-3-1.4-1.6 0-3-.3-3-.8 0-.4-2.3-1.3-5.2-2-5.9-1.4-10.8-5.4-10.8-8.8 0-1.6-.7-2.4-2.2-2.6-1.5-.2-2.4-1.1-2.6-2.5-.2-1.3-1-2.3-1.8-2.3s-1.4-.7-1.4-1.5-.4-1.5-1-1.5c-.5 0-1-.9-1-2 0-3 3.3-2.5 5.2.8 3.1 5.3 13.7 16 16.5 16.6 1.6.4 7 2.7 12.1 5.2 16.3 7.9 24.1 18 30.6 39.6 2.2 7.2 3.4 9.6 7.6 14.2 5.6 6.1 16.6 12.9 28.4 17.7 4.2 1.7 7.6 3.6 7.6 4.2 0 2.4-8.7 9-17.3 13.1-9.6 4.6-20.5 8-29.4 9.2-4.8.6-5.3.5-5.3-1.2ZM64 151.2c0-.5 1.5-2.6 3.3-4.8 1.8-2.1 5.4-6.8 7.9-10.5 2.5-3.6 5.3-7.1 6.2-7.8 1.4-1.2 1.6-.9 1.6 2.4 0 2.8-.5 3.8-2 4.2-1.1.3-2 1.4-2 2.4 0 1.1-.4 1.9-1 1.9-.5 0-1 .7-1 1.5s-.4 1.5-1 1.5c-.5 0-1 .7-1 1.5s-.9 1.5-2 1.5c-1.5 0-2 .7-2 2.5 0 1.4-.8 2.9-1.9 3.5-2.4 1.2-5.1 1.3-5.1.2Zm23-28.3c4.2-3.7 13.2-9.9 14.2-9.9.5 0 .8 1.1.8 2.5 0 1.6-.6 2.5-1.5 2.5-.8 0-1.5.5-1.5 1 0 .6-.7 1-1.5 1s-1.5.5-1.5 1c0 .6-1.1 1-2.5 1-1.8 0-2.5.5-2.5 2 0 1.7-.7 2-3.7 2-3.8-.1-3.8-.1-.3-3.1Z" fill="#666"/><path d="M203.4 119.5c-10.9-5.5-16.8-15.2-13.8-22.9 1-2.7 6.8-2.1 8.4.8 1.7 3.2 7.7 7.4 17.8 12.5 8.2 4.1 8.2 4.1 8.2 8.1s0 4-7.8 4c-6.3 0-8.7-.5-12.8-2.5ZM103 113c0-.5 1.4-1.7 3-2.5 3.3-1.7 3.4-1.5-1.6-8.5-3.9-5.6-7.1-11.8-9.5-18.7-1.8-5.3-1.8-5.3.6-5.3 1.9 0 2.5.8 3.6 5 .7 2.8 1.6 5 2 5 .4 0 1.5 2 2.6 4.5 1 2.5 2.1 4.5 2.6 4.5.4 0 .7.7.7 1.5s.5 1.5 1 1.5c.6 0 1 .9 1 2s.7 2 1.5 2c1 0 1.5 1.1 1.5 3.5 0 1.9-.4 3.5-1 3.5-.5 0-1 .7-1 1.5 0 1-1.1 1.5-3.5 1.5-1.9 0-3.5-.4-3.5-1Zm224.5-21.2c-5-5.3-5-5.3.3-.3 2.8 2.7 5.2 5.1 5.2 5.2 0 .8-.9-.1-5.5-4.9Z" fill="#666"/><path d="M76.6 332.1c-3.7-4.1-4.8-27.2-2.1-43.9 6.9-42.6 44.8-74.2 89.1-74.2 9.4 0 9.4 0 9.4 3.5 0 2.4-.7 4.1-2.2 5.3-5.9 4.8-9.8 8.5-9.8 9.5 0 .6.7.1 1.6-1.1.8-1.2 2.1-2.2 2.7-2.2.7 0 1.8-.9 2.5-2s1.6-2 2.2-2c.5 0 2.1-1.1 3.6-2.5s3.3-2.5 4-2.5c.8 0 1.4-.4 1.4-.9 0-1.6 29.5-19.1 32.2-19.1.4 0 .8.7.8 1.5 0 2 .7 1.9 8.6-1.3 15.6-6.4 22.4-7.7 40.9-7.7 16.9.1 17.1.1 27.5 3.7 10.5 3.6 10.5 3.6.2 3.7-10.6.1-13 1.4-4.5 2.4 2.7.3 11.6 2.9 19.8 5.9 15 5.3 15 5.3 18.8 10.8 6.3 9.2 12.5 22.9 15.2 33.9 1.4 5.7 2.4 11.1 2.2 12-.4 1.3-.5 1.3-.6-.2 0-1-.6-1.5-1.2-1.2-.5.4-3.3-.4-6.2-1.8-2.9-1.4-8.8-4-13.2-5.7-4.4-1.7-9.8-4-12-5-2.2-1-10.7-4.6-19-8-17.7-7.4-17.9-7.5-32-13.8-6-2.8-13.1-5.7-15.6-6.5-4.4-1.5-11.5-4.7-24.3-10.9-3.2-1.5-6.5-2.8-7.3-2.8-.9 0-1.3-.6-1-1.4.4-1 .1-1.3-.8-.9-.8.3-1.2 1-.8 1.6.3.6.1.7-.6.3-2.4-1.5-27.1 14.7-45 29.7-4.5 3.7-8.3 6.7-8.6 6.7-.6 0 .4-5.4 1.6-9.7 1.5-4.9 6.5-11.1 11.5-14.2 4.4-2.9 4.4-2.9 1.5-3.3-8.4-1.2-33.7 4.1-32.7 6.9.3.7.2 1.3-.3 1.3-.4 0-2.8 2.8-5.2 6.2-3.9 5.6-18.3 23.5-19.9 24.8-.3.3-3.2 3.7-6.5 7.5-18.9 22.6-22.3 25.9-22.6 21.8-.1-1-.7 1.1-1.5 4.7-1.7 8.2-1.7 26.3 0 35.8.7 3.9.9 7.2.6 7.2-.4 0-1.4-.8-2.4-1.9Z" fill="url(#Frame__b)"/><path d="M34.5 232.8c1.4-10.5 4.7-23.4 8.5-33.3 4.1-10.4 12.2-24.5 16-28 2.1-1.9 2.1-1.9 1.8 2-.2 3.3-.7 4.1-2.5 4.3-1.8.3-2.3 1-2.3 3.3 0 1.9-.5 2.9-1.5 2.9-.8 0-1.5.9-1.5 2 0 2.4-4.1 11-5.2 11-.4 0-.8 1.1-.8 2.5s-.4 2.5-1 2.5c-.5 0-1 .7-1 1.5s-1.2 5.4-2.6 10.2c-1.4 4.9-3 12.3-3.7 16.6-.9 6.5-1.4 7.7-3 7.7-1.7 0-1.8-.5-1.2-5.2ZM208 184.7c0-1.8-.9-6.7-2-10.8-1.1-4.1-2-8.6-2-10.1 0-2.8 0-2.8 7.5-2.8 6.8 0 7.5.2 7.5 2s-.7 2-6 2c-5.8 0-6 .1-5 2 1.2 2.2 4 15.8 4 19.1 0 1.2-.7 1.9-2 1.9-1.6 0-2-.7-2-3.3ZM67 163.5c.7-.8 4.5-3.6 8.4-6.2 3.9-2.5 7.4-4.9 7.8-5.2.4-.4-2.3-.5-6.1-.3-6.1.4-7 .2-7.4-1.4-.4-1.7-.5-1.7-.6-.1-.1 1.1-.9 1.7-2.6 1.7-3 0-2.9-.3 2.5-7.3 1.9-2.6 3.9-4.7 4.4-4.7.4 0 .6 1.8.4 4-.4 4-.4 4 6.9 4 7.3 0 7.3 0 7.3 3.5 0 2.4-.5 3.5-1.5 3.5-.8 0-1.5.5-1.5 1 0 .6-1.1 1-2.5 1-1.6 0-2.5.6-2.5 1.5 0 .8-.7 1.5-1.5 1.5s-1.5.5-1.5 1c0 .6-.9 1-2 1s-2 .7-2 1.5c0 1.1-1.1 1.5-3.6 1.5-3.1 0-3.5-.2-2.4-1.5Zm157-.2c0-1.8.9-2.1 6.9-2.7 7.3-.6 25.7-6.1 27.9-8.3.7-.7 2.7-1.3 4.3-1.3 1.9 0 2.9-.5 2.9-1.5 0-.8.7-1.5 1.5-1.5s1.5-.4 1.5-1c0-.5.9-1 2-1s2-.6 2-1.4c0-.8-.9-1.8-2-2.1-1.1-.3-2-1.1-2-1.6s-1.1-.9-2.5-.9c-1.6 0-2.5-.6-2.5-1.5s-.9-1.5-2.4-1.5c-3.5 0-5.6-1-5.6-2.6 0-.8-1-1.4-2.5-1.4s-2.5-.6-2.5-1.4c0-.9-1.2-1.6-2.7-1.8-2.4-.3-2.9-.8-3.1-3.7-.4-3.5-.4-3.5 3-.9 5.4 4.1 15.3 9.5 23.3 12.9 4.1 1.7 7.7 3.4 8 3.9 1.1 1.7-7.7 8.5-17 13.1-10.7 5.2-21 8.3-31.8 9.4-6.2.7-6.7.6-6.7-1.2ZM76.2 134.8c4.1-6 12.4-13.6 20.3-18.7 4.3-2.8 8.3-5.1 9-5.1.7 0 1.8-.7 2.5-1.5.9-1.1.7-2.1-1.3-4.7-6.2-8.1-14.6-26.5-13.2-28.8.3-.6 1.2-1 2-1 1.5 0 5.5 10.9 5.5 15.2 0 2.1.5 2.8 2 2.8 1.3 0 2.2.9 2.6 2.5.3 1.4 1 2.5 1.5 2.5s.9.7.9 1.5.5 1.5 1 1.5c.6 0 1 .9 1 2s.6 2 1.4 2c1.7 0 2.6 2.2 2.6 6.1 0 2.4-.4 2.9-2.5 2.9-2.5 0-9.8 3-10.3 4.3-.2.4-1 .7-1.8.7s-1.4.5-1.4 1c0 .6-.6 1-1.4 1-.8 0-1.6.7-2 1.5-.3.8-1.5 1.5-2.6 1.5s-2 .6-2 1.3c0 1.9-6.3 7.7-8.3 7.7-1.1 0-1.7.8-1.7 2.5 0 2.1-.5 2.5-3.1 2.5-3 0-3 0-.7-3.2Zm133.6-12.5c-1.6-.2-2.8-.9-2.8-1.4 0-.5-1.1-.9-2.5-.9s-2.5-.4-2.5-1c0-.5-.7-1-1.5-1s-1.5-.4-1.5-1c0-.5-.6-1-1.3-1-1.4 0-5.7-4.4-5.7-5.9 0-.5-.5-1.1-1.2-1.3-.6-.2-1.3-3.1-1.6-6.6-.4-6.2-.4-6.2 4.2-6.2 3.3 0 4.6.4 4.6 1.4 0 .8.7 1.6 1.5 2 .8.3 1.5 1.2 1.5 2.1 0 .8.9 1.5 2 1.5s2 .4 2 .9 1.1 1.2 2.5 1.5c1.8.5 2.5 1.3 2.5 3.1 0 1.4-.4 2.5-.9 2.5-1.9 0-12.8-8.1-14.1-10.5-2.1-3.9-3.5-.6-1.6 3.8 3 7.4 14.4 14.7 22.7 14.7 6 0 6.8-1.2 2.4-3.3-4.3-2-4.5-3.7-.5-3.7 5.3 0 8 1.9 8 5.7 0 3-.3 3.3-3 3.3-1.6 0-3 .5-3 1 0 1-4.8 1.1-10.2.3Zm28.2-1.4c0-.6-.7-1.7-1.5-2.5-.8-.9-1.5-2.6-1.5-3.9 0-1.3-.3-2.5-.8-2.7-1.1-.5-5.2-14-5.2-17.2 0-5.5 2.5-1.9 6.1 8.6 1.9 5.9 4.7 12.5 6.2 14.7 2.7 4.1 2.7 4.1-.3 4.1-1.6 0-3-.5-3-1.1Zm-14-33.3c0-.8-.5-1.6-1.1-1.8-.6-.2-.9-1.9-.7-3.8.3-3.5.3-3.5 3.6.9 3.9 5.3 4 6.1.7 6.1-1.5 0-2.5-.6-2.5-1.4ZM212 75c0-.5-.7-1-1.5-1s-1.5-.9-1.5-2c0-1.5-.7-2-2.7-2-1.4 0-5.9-1.2-9.9-2.7-6.1-2.3-7.4-3.2-7.4-5 0-2.3 0-2.3 7.3.3 7.6 2.8 19.5 9.3 21.7 11.8 1.1 1.4.8 1.6-2.4 1.6-2 0-3.6-.4-3.6-1Zm-77.8-16.6c-2.5-1.7-3-4.4-.8-4.4.8 0 1.6-.7 2-1.5.3-.8 1.1-1.5 1.8-1.5s2.5-.7 4.1-1.4c1.5-.8 2.7-1.1 2.7-.7 0 .5 2.6 1.2 5.8 1.5 3.1.3 9.2 1.2 13.5 1.8 7.7 1.2 7.7 1.2 7.7 4.5s0 3.3-17.3 3.3c-14 0-17.7-.3-19.5-1.6Zm46.5-1.1c-.4-.3-.7-1.7-.7-3 0-1.7-.6-2.3-2.1-2.3-1.2 0-2.3-.8-2.6-2-.3-1.1-.9-2-1.4-2-.5 0-.9-1.3-.9-3 0-1.6.4-3 .8-3 .5 0 3.1 2.8 5.8 6.2 8.3 10.6 7.9 9.8 4.6 9.8-1.6 0-3.2-.3-3.5-.7Z" fill="#999"/><path d="M76.7 332c-1.4-1.6-3-3-3.4-3-1.8 0-7-6.7-8.6-11-3.6-10-4.7-17.4-4.7-33 0-23.4 4.2-39.9 15.4-60.4 10.1-18.6 28.8-39.6 44.2-49.8 10.8-7.2 26.7-14.5 37.9-17.5 8.8-2.3 12-2.6 26.5-2.7 13.3 0 17.1.3 19.5 1.6 4.6 2.4 15 4.8 21.1 4.8 4 0 5.4.4 5.4 1.4 0 2.2-5.1 2.9-14.7 2.1-8.2-.7-8.6-.7-7.9 1.1 2.4 6.1 3.8 14.4 4.3 25.5.6 12.6.6 12.6-8.3 17.3-11.8 6.3-23.6 14.2-35.7 24-15.3 12.4-14.7 12-14.7 10.4 0-7 6.5-17.5 13.5-21.8 1.9-1.2 3.5-2.6 3.5-3.1 0-1.4-11.9-1.1-20.8.6-36.6 7-65.8 36.6-71.7 72.7-2.3 14.2-1.6 33.2 1.6 40.7 1.5 3.5.5 3.6-2.4.1ZM35 263.1c-1.6-3.1-1.2-5.1 1-5.1 1.6 0 2 .7 2 3.5 0 3.9-1.4 4.6-3 1.6Zm-1-22.8c0-5.1 2.9-20.8 5.5-29.6 3-10.3 7.9-21.7 9.4-21.7 2 0 1.1 5.2-2.4 13.9-4.2 10.5-7.3 23.1-8.2 32.9-.5 6.1-.9 7.2-2.4 7.2-1.4 0-1.9-.7-1.9-2.7Zm15-52.9c0-1.4 6.2-11.2 9.4-14.9 3.5-4 3.5-4 3.6-.2 0 3-.3 3.7-2 3.7-1.5 0-2 .7-2 2.5 0 1.6-.6 2.5-1.5 2.5-.8 0-1.5.9-1.5 1.9 0 3.5-1.2 5.1-3.6 5.1-1.3 0-2.4-.3-2.4-.6Zm16.6-22.5c1-1.2 5.9-4.8 10.8-8 7.3-4.8 8.5-5.9 6.3-5.9-1.5 0-2.7-.4-2.7-.9 0-1.2 2.6-2.1 6.1-2.1 2.6 0 2.9.3 2.9 3.4 0 3.5-1.3 4.6-5.1 4.6-1 0-1.9.7-1.9 1.5s-.7 1.5-1.5 1.5-1.5.5-1.5 1c0 .6-.7 1-1.5 1s-1.5.5-1.5 1c0 .6-.8 1-1.9 1-1 0-2.1.9-2.4 2-.4 1.6-1.4 2-4.3 2-3.7 0-3.7 0-1.8-2.1Zm166.4-2.7c0-2 3.8-3.2 10.3-3.2 1.5 0 2.7-.4 2.7-1 0-.5 1.4-1 3-1 1.7 0 3-.4 3-1 0-.5 1.1-1 2.5-1s2.5-.4 2.5-1c0-.5 1.4-1 3-1 1.9 0 3-.5 3-1.4 0-1.6 2.1-2.6 5.6-2.6 1.7 0 2.4-.6 2.4-2 0-1.5.7-2 2.6-2 2.3 0 2.4-.2 1-1.5-.8-.8-2-1.5-2.7-1.5-.8 0-3.3-.7-5.6-1.6-2.9-1.2-4.3-2.3-4.3-3.5 0-1.5-.8-1.9-3.5-1.9-2.4 0-3.5-.5-3.5-1.5 0-.9-.9-1.5-2.5-1.5-2 0-2.5-.5-2.5-2.5 0-1.4.2-2.5.5-2.5s4 2 8.3 4.4c4.2 2.5 10.7 5.7 14.5 7.2 3.7 1.5 6.7 3.3 6.7 4 0 2.2-8.1 8.3-16.4 12.3-8.3 4-18.8 7.4-26.3 8.6-3.8.6-4.3.5-4.3-1.3ZM65 151c0-.5 1.2-2.4 2.8-4.2 1.5-1.8 4.4-5.8 6.5-8.9 2.1-3.1 4.7-6.5 5.7-7.4 2-1.8 2-1.7 2 1.9 0 2.9-.4 3.9-2 4.3-1.1.3-2 1.4-2 2.4 0 1.1-.4 1.9-.9 1.9s-1.2 1.1-1.5 2.5c-.5 1.8-1.3 2.5-3.1 2.5-1.4 0-2.5.5-2.5 1 0 .6 1.4 1 3 1 3.6 0 4.1 2.5.8 3.4-3.5.9-8.8.7-8.8-.4Zm21-26.5c0-.9 12.5-9.7 17.2-12.1 2.9-1.4 5.4-2.1 6.5-1.7 1.7.7 1.7.6.1-1.7-9.6-13.6-15.6-26.2-16.5-34.5-.2-2.2-.6-10.1-.9-17.6-.5-13.7-.5-13.7 9.3-11.8 10 1.8 23 5.5 24.8 6.9.6.5 2.8 1.1 5 1.5 2.2.4 4.6 1.2 5.3 1.8.7.5 2.2 1.1 3.5 1.2 1.2.1 2.8.3 3.5.4 2.3.2 1.2 2.7-2 4.6-2.2 1.3-5.8 2-11.3 2.3-7 .4-9 .1-14.5-2.1-3.5-1.5-6.5-2.5-6.7-2.3-.5.5 9 14.2 15.2 22.1 4.1 5.2 5.5 7.8 5.5 10.2 0 3.1-.2 3.3-3.6 3.3-4.2 0-6.8 1.2-11.1 5.3-3.2 3-4.3 5.7-2.3 5.7.6 0 1 1.5 1 3.4 0 2.9-.4 3.6-3.1 4.5-1.8.6-4.3 1.1-5.5 1.1-1.5 0-2.4.6-2.4 1.5 0 .8-.7 1.5-1.5 1.5s-1.5.5-1.5 1c0 .6-.7 1-1.5 1s-1.5.5-1.5 1c0 .6-.9 1-2 1s-2 .7-2 1.5c0 1-1.1 1.5-3.5 1.5-1.9 0-3.5-.2-3.5-.5Zm121.3-2.6c-1.8-.5-3.3-1.4-3.3-1.9 0-.6-.9-1-2-1s-2-.4-2-1c0-.5-.7-1-1.5-1-1 0-1.5-1-1.5-3 0-2.7-.3-3-3-3-2.3 0-3-.4-3-2 0-1.1-.4-2-1-2-.5 0-1-1.6-1-3.5s.5-3.5 1-3.5c.6 0 1-1.1 1-2.5 0-2.2.4-2.5 3.5-2.5s3.6.3 4.2 3c.4 2.1 1.1 3 2.5 3 1 0 2.1.7 2.4 1.5.4.8 1.2 1.5 2 1.5s1.4.7 1.4 1.5.9 1.5 2 1.5c2.4 0 11 4.1 11 5.2 0 .4 1.1.8 2.5.8 2.3 0 2.5.4 2.5 4.4 0 3.7-.4 4.5-2.2 5-3.3.8-11.8.6-15.5-.5Zm13.6-3.4c2-.6.8-1.5-8-5.8-6.9-3.4-12-6.7-15.1-9.8-5-5-6.4-4.9-5.3.3 1.3 5.8 11.4 13.8 20 15.9 3 .7 4.1.6 8.4-.6Zm16.1-.5c0-2-.5-3-1.5-3s-1.5-1-1.5-3c0-1.6-.4-3-.8-3s-2.1-4-3.7-9c-1.7-4.9-3.3-9-3.7-9-.5 0-.8-.7-.8-1.5s-.4-1.5-1-1.5c-.5 0-1-.7-1-1.5s-.4-1.5-1-1.5c-.5 0-1-1.6-1-3.6 0-2.3.4-3.3 1.1-2.8 3 1.8 9.2 13.7 12.4 23.8 2 6.1 4.7 12.8 6.1 14.9 2.4 3.7 2.4 3.7-.6 3.7-2.7 0-3-.3-3-3Zm-24-42c0-.5-.7-1-1.5-1s-1.5-.4-1.5-.8-1.6-1.4-3.5-2.1c-1.9-.7-3.5-1.7-3.5-2.2 0-.5-.9-.9-2-.9s-2-.4-2-1c0-.5-.9-1-2-1s-4.3-.9-7.2-2c-5.4-2.1-19-4-28.5-4-3.9 0-5.3-.4-5.3-1.4 0-.8-.6-1.7-1.2-1.9-.7-.3 2.1-.6 6.2-.7 7.5-.2 7.5-.2.5-1.5-3.8-.7-10-1.6-13.7-2-3.8-.4-6.8-1.1-6.8-1.6s1.1-2.6 2.4-4.7c1.3-2 2.7-5 3-6.7 2.8-15.6 2.2-14.8 8.6-11.4 3.2 1.7 8.6 5.3 11.9 8 3.4 2.7 6.5 4.9 7 4.9.4 0 2 1.7 3.4 3.8 1.4 2 4.7 6.2 7.5 9.2 4.2 4.8 6.2 6 13.4 8.8 8 3 19.8 9.7 21.2 12.1.5.7-.5 1.1-2.8 1.1-2 0-3.6-.4-3.6-1Z" fill="#CCC"/><path d="M68.3 324.8C57.7 313.9 39 284.2 39 278.4c0-1-.6-3.6-1.4-5.9-3.2-9.1-3.9-15.4-3.3-28 1.1-21.3 5.3-37.7 14.4-56.2 7.3-14.9 16.4-24.5 31.7-33.7 6-3.6 6-3.6-4.8-3.6-10.9 0-10.9 0-8.2-3.3 1.4-1.7 4.1-5.4 5.9-8.2 8.2-12.3 25.7-26.8 34-28.2 2-.3 3.7-.8 3.7-1.2 0-.3-1-1.9-2.3-3.5-2.3-2.9-2.3-2.9 1.7-7.3 4.9-5.4 6.8-6.5 12.4-7.3 4.2-.5 4.2-.5-1.3-7.5-10.9-13.7-21.8-31.5-20.3-33.1.4-.3 5.3 1.6 11 4.2 9.1 4.3 11.1 4.9 16.8 4.9 4.8 0 7.4-.5 9.5-1.9 2.6-1.7 4.1-1.8 16.9-1.2 22.9 1.1 30.9 2.2 40.3 5.7 22.3 8.2 30.8 16.7 38.2 38.3 2.2 6.3 4.5 12.6 5.2 13.8 3.6 7.1 19.2 18.2 33.2 23.8 3.1 1.2 6 2.7 6.3 3.2 2 3.2-19.7 15.7-33.6 19.3-10.1 2.6-26.3 3.1-34.6 1-3.8-.9-8.2-2.4-9.9-3.3-2.3-1.2-6-1.6-16.5-1.5-16.7.1-28.4 2.8-43.9 10.3-14.1 6.9-23 12.9-33.5 23-21 20.1-36.4 46.9-41.7 72.5-2.4 11.3-2.5 31.2-.4 40.5 1.7 7.3 6 19.4 8.1 22.8 2.3 3.5.2 2.6-4.3-2Zm153.9-206.6c.5-.5-2.4-2.5-7.8-5.1-10.1-4.8-18-10.3-18.9-13.1-.8-2.4-2.3-2.6-3.1-.5-2.2 5.5 6.7 15.2 17.5 19.2 3.8 1.4 10.7 1.1 12.3-.5Z" fill="#fff"/><defs><linearGradient id="Frame__a" x1="7.5" y1="4.5" x2="2.5" y2="9" gradientUnits="userSpaceOnUse"><stop stop-color="#8D8E8D"/><stop offset=".01" stop-color="#8B8C8B"/><stop offset=".02" stop-color="#8A8C8A"/><stop offset=".03" stop-color="#8A8B8A"/><stop offset=".04" stop-color="#828382"/><stop offset=".05" stop-color="#878987"/><stop offset=".12" stop-color="#848584"/><stop offset=".13" stop-color="#838583"/><stop offset=".14" stop-color="#838483"/><stop offset=".24" stop-color="#7D7E7D"/><stop offset=".25" stop-color="#7C7E7C"/><stop offset=".26" stop-color="#7C7D7C"/><stop offset=".28" stop-color="#7B7C7B"/><stop offset=".29" stop-color="#7A7C7A"/><stop offset=".3" stop-color="#7A7B7A"/><stop offset=".31" stop-color="#797B79"/><stop offset=".37" stop-color="#777877"/><stop offset=".38" stop-color="#767876"/><stop offset=".92" stop-color="#616261"/><stop offset=".93" stop-color="#5F605E"/><stop offset=".94" stop-color="#5F5F5E"/><stop offset=".98" stop-color="#5D5E5C"/><stop offset="1" stop-color="#5D5D5D"/></linearGradient><linearGradient id="Frame__b" x1="7.5" y1="4.5" x2="2.5" y2="9" gradientUnits="userSpaceOnUse"><stop stop-color="#8D8E8D"/><stop offset=".01" stop-color="#8B8C8B"/><stop offset=".02" stop-color="#8A8C8A"/><stop offset=".03" stop-color="#8A8B8A"/><stop offset=".04" stop-color="#828382"/><stop offset=".05" stop-color="#878987"/><stop offset=".12" stop-color="#848584"/><stop offset=".13" stop-color="#838583"/><stop offset=".14" stop-color="#838483"/><stop offset=".24" stop-color="#7D7E7D"/><stop offset=".25" stop-color="#7C7E7C"/><stop offset=".26" stop-color="#7C7D7C"/><stop offset=".28" stop-color="#7B7C7B"/><stop offset=".29" stop-color="#7A7C7A"/><stop offset=".3" stop-color="#7A7B7A"/><stop offset=".31" stop-color="#797B79"/><stop offset=".37" stop-color="#777877"/><stop offset=".38" stop-color="#767876"/><stop offset=".92" stop-color="#616261"/><stop offset=".93" stop-color="#5F605E"/><stop offset=".94" stop-color="#5F5F5E"/><stop offset=".98" stop-color="#5D5E5C"/><stop offset="1" stop-color="#5D5D5D"/></linearGradient></defs></svg>