<svg fill="none" xmlns="http://www.w3.org/2000/svg" viewBox="0 0 177 48"><path d="M66.59 13.134v6.347a8.399 8.399 0 0 1-2.55 1.291c-.896.268-1.858.402-2.885.402-1.28 0-2.441-.2-3.483-.597-1.034-.398-1.92-.951-2.658-1.66a7.307 7.307 0 0 1-1.693-2.539c-.398-.984-.597-2.058-.597-3.222 0-1.18.192-2.26.575-3.245a7.36 7.36 0 0 1 1.628-2.538c.709-.71 1.566-1.259 2.571-1.65 1.006-.39 2.134-.585 3.385-.585.637 0 1.23.05 1.78.151a8.58 8.58 0 0 1 1.54.424 6.41 6.41 0 0 1 1.302.64c.391.253.75.531 1.075.835l-.836 1.324c-.13.21-.3.34-.51.39-.21.044-.437-.01-.683-.162l-.716-.413a4.557 4.557 0 0 0-.803-.358 6.33 6.33 0 0 0-.988-.25 7.176 7.176 0 0 0-1.258-.097c-.774 0-1.476.13-2.105.39a4.453 4.453 0 0 0-1.595 1.118 5.038 5.038 0 0 0-1.02 1.747c-.239.68-.358 1.44-.358 2.279 0 .896.127 1.7.38 2.408a5.23 5.23 0 0 0 1.085 1.79 4.77 4.77 0 0 0 1.692 1.118c.659.253 1.393.38 2.203.38.579 0 1.096-.062 1.551-.185.456-.123.9-.289 1.335-.499v-2.842h-1.975c-.188 0-.336-.051-.445-.152a.553.553 0 0 1-.151-.39v-1.65h5.207Zm5.06-8.257V21h-2.68V4.877h2.68Zm7.595 4.817c.825 0 1.573.134 2.246.402.68.268 1.259.647 1.736 1.14a4.966 4.966 0 0 1 1.118 1.8c.26.71.39 1.501.39 2.376 0 .883-.13 1.678-.39 2.387a5.073 5.073 0 0 1-1.118 1.812c-.477.5-1.056.883-1.736 1.15-.673.268-1.421.402-2.246.402-.832 0-1.588-.134-2.267-.402a4.904 4.904 0 0 1-1.747-1.15 5.285 5.285 0 0 1-1.118-1.812c-.26-.709-.39-1.504-.39-2.387 0-.875.13-1.667.39-2.376a5.17 5.17 0 0 1 1.118-1.8 4.977 4.977 0 0 1 1.747-1.14c.68-.268 1.435-.402 2.267-.402Zm0 9.407c.926 0 1.61-.31 2.05-.933.45-.622.674-1.533.674-2.734 0-1.2-.225-2.116-.673-2.745-.441-.63-1.125-.944-2.05-.944-.941 0-1.64.318-2.095.955-.448.63-.672 1.54-.672 2.734s.224 2.105.672 2.734c.456.622 1.154.933 2.094.933Zm10.215-.987c.303.369.633.63.987.781.362.152.741.228 1.14.228.412 0 .78-.072 1.106-.217.333-.152.615-.383.846-.694.232-.319.409-.72.532-1.205.123-.492.184-1.078.184-1.757 0-1.223-.202-2.105-.607-2.648-.405-.55-.988-.824-1.747-.824-.514 0-.962.119-1.346.358-.383.231-.748.56-1.095.987v4.991Zm0-6.879c.448-.47.944-.842 1.486-1.117.55-.282 1.175-.424 1.877-.424.644 0 1.223.127 1.736.38.52.253.962.619 1.324 1.096.369.47.65 1.042.846 1.714.195.673.293 1.429.293 2.268 0 .904-.112 1.725-.336 2.463-.225.738-.547 1.37-.966 1.899a4.34 4.34 0 0 1-1.497 1.215 4.35 4.35 0 0 1-1.953.434 3.8 3.8 0 0 1-.944-.109 3.335 3.335 0 0 1-1.443-.727 6.354 6.354 0 0 1-.564-.596l-.12.748c-.043.188-.12.322-.228.402-.1.08-.242.119-.423.119H86.78V4.877h2.68v6.358Zm15.512 5.013c-.774.036-1.425.105-1.953.206-.528.094-.951.217-1.269.369-.318.152-.546.329-.684.532a1.158 1.158 0 0 0-.206.661c0 .47.138.807.413 1.01.282.202.647.303 1.095.303.55 0 1.024-.098 1.422-.293.405-.202.799-.506 1.182-.911v-1.877Zm-6.14-4.828c1.28-1.172 2.82-1.758 4.621-1.758.651 0 1.234.108 1.747.325a3.6 3.6 0 0 1 1.302.89c.355.376.622.828.803 1.356.188.528.282 1.107.282 1.736V21h-1.215c-.253 0-.449-.036-.586-.108-.137-.08-.246-.236-.325-.467l-.239-.803c-.282.253-.557.477-.825.673a5.059 5.059 0 0 1-.835.477 4.28 4.28 0 0 1-.933.293 5.015 5.015 0 0 1-1.085.109c-.47 0-.904-.062-1.302-.185a2.925 2.925 0 0 1-1.031-.575 2.557 2.557 0 0 1-.673-.944c-.159-.376-.238-.814-.238-1.313a2.566 2.566 0 0 1 .596-1.638c.217-.253.496-.492.836-.716.34-.224.756-.42 1.248-.586a10.62 10.62 0 0 1 1.736-.401c.658-.109 1.41-.174 2.256-.196v-.65c0-.746-.159-1.295-.477-1.65-.318-.361-.778-.542-1.378-.542-.434 0-.796.05-1.085.152a4.237 4.237 0 0 0-.749.347l-.596.336a1.142 1.142 0 0 1-.586.152.794.794 0 0 1-.478-.141 1.296 1.296 0 0 1-.314-.347l-.478-.857Zm13.991-6.543V21h-2.679V4.877h2.679ZM67.368 33.366c0 1.15-.192 2.206-.575 3.168a7.276 7.276 0 0 1-1.617 2.485 7.232 7.232 0 0 1-2.506 1.616c-.977.384-2.062.575-3.255.575h-5.978V25.521h5.978c1.194 0 2.279.196 3.255.586a7.23 7.23 0 0 1 2.506 1.617 7.163 7.163 0 0 1 1.617 2.474c.383.962.575 2.018.575 3.168Zm-2.995 0c0-.861-.115-1.631-.347-2.311-.224-.687-.553-1.266-.987-1.736a4.218 4.218 0 0 0-1.563-1.096c-.607-.253-1.294-.38-2.061-.38h-3.049v11.045h3.049c.767 0 1.454-.126 2.062-.38a4.277 4.277 0 0 0 1.562-1.084 4.757 4.757 0 0 0 .987-1.736c.232-.688.347-1.462.347-2.322Zm7.735-3.288V41.21h-2.69V30.078h2.69Zm.37-3.244c0 .232-.048.449-.142.651-.094.203-.22.38-.38.532a1.8 1.8 0 0 1-.542.369 1.74 1.74 0 0 1-.673.13c-.231 0-.452-.043-.662-.13a1.84 1.84 0 0 1-.531-.37 1.84 1.84 0 0 1-.37-.53 1.635 1.635 0 0 1-.13-.652c0-.238.044-.463.13-.672a1.8 1.8 0 0 1 .37-.543 1.68 1.68 0 0 1 .531-.358 1.6 1.6 0 0 1 .662-.141c.239 0 .463.047.673.141.21.087.39.206.542.358a1.693 1.693 0 0 1 .521 1.215Zm9.154 5.414a.774.774 0 0 1-.228.25.63.63 0 0 1-.303.065.992.992 0 0 1-.423-.109 12.649 12.649 0 0 0-.51-.238 4.236 4.236 0 0 0-.673-.25 3.134 3.134 0 0 0-.879-.108c-.528 0-.944.112-1.248.336a1.051 1.051 0 0 0-.444.879c0 .239.075.441.227.607.16.16.366.3.619.424.26.123.553.235.879.336.325.094.654.199.987.315.34.115.673.25.998.401.326.145.615.333.868.564.26.224.467.496.619.814.159.318.238.702.238 1.15 0 .535-.097 1.03-.293 1.486-.188.449-.47.84-.846 1.172-.376.326-.843.583-1.4.77-.55.181-1.186.272-1.91.272-.382 0-.759-.036-1.127-.109a6.128 6.128 0 0 1-1.986-.716 4.628 4.628 0 0 1-.749-.542l.619-1.02a.873.873 0 0 1 .282-.282.79.79 0 0 1 .412-.098.84.84 0 0 1 .467.141c.152.094.325.195.52.304.196.108.424.21.684.304.268.094.604.14 1.01.14.317 0 .589-.035.813-.108.231-.08.42-.18.564-.304.152-.123.26-.264.326-.423a1.27 1.27 0 0 0 .108-.51.89.89 0 0 0-.239-.64 1.954 1.954 0 0 0-.618-.434 5.334 5.334 0 0 0-.879-.325c-.326-.102-.662-.21-1.009-.326a11.04 11.04 0 0 1-1.01-.401 3.693 3.693 0 0 1-.878-.597 2.787 2.787 0 0 1-.618-.879c-.152-.347-.228-.766-.228-1.258 0-.456.09-.89.271-1.302.18-.413.445-.77.792-1.074a3.906 3.906 0 0 1 1.313-.738c.528-.188 1.135-.282 1.823-.282.766 0 1.464.126 2.094.38.629.253 1.153.585 1.573.998l-.608.965Zm10.719.185c-.08.101-.16.18-.239.238-.072.058-.18.087-.325.087a.761.761 0 0 1-.402-.12 7.115 7.115 0 0 0-.466-.281 3.034 3.034 0 0 0-.651-.282c-.246-.087-.554-.13-.922-.13-.47 0-.883.086-1.237.26a2.34 2.34 0 0 0-.89.727 3.357 3.357 0 0 0-.52 1.16 6.14 6.14 0 0 0-.174 1.53c0 .594.061 1.122.184 1.585.13.463.315.853.553 1.171.24.311.528.55.868.716.34.16.724.24 1.15.24.427 0 .77-.051 1.031-.153a3.62 3.62 0 0 0 .673-.347c.18-.13.336-.246.466-.347a.718.718 0 0 1 .456-.163c.217 0 .38.083.488.25l.77.976c-.296.347-.618.64-.965.879a5.52 5.52 0 0 1-1.085.564 5.594 5.594 0 0 1-1.15.293 7.96 7.96 0 0 1-1.172.087 4.998 4.998 0 0 1-1.942-.38 4.65 4.65 0 0 1-1.595-1.128c-.456-.492-.817-1.092-1.085-1.801-.26-.716-.39-1.53-.39-2.441 0-.818.115-1.574.347-2.268a5.152 5.152 0 0 1 1.041-1.812 4.719 4.719 0 0 1 1.693-1.204c.673-.29 1.447-.434 2.322-.434.832 0 1.558.133 2.18.401.63.268 1.194.651 1.693 1.15l-.705.977Zm7.229-2.528c.824 0 1.573.133 2.246.401.68.268 1.258.647 1.736 1.14a4.967 4.967 0 0 1 1.117 1.8c.261.71.391 1.501.391 2.377 0 .882-.13 1.678-.391 2.387a5.075 5.075 0 0 1-1.117 1.811c-.478.5-1.056.883-1.736 1.15-.673.268-1.422.402-2.246.402-.832 0-1.588-.134-2.268-.401a4.904 4.904 0 0 1-1.747-1.15 5.285 5.285 0 0 1-1.117-1.813c-.26-.708-.39-1.504-.39-2.386 0-.876.13-1.668.39-2.377a5.17 5.17 0 0 1 1.117-1.8 4.976 4.976 0 0 1 1.747-1.14c.68-.268 1.436-.401 2.268-.401Zm0 9.407c.926 0 1.609-.311 2.05-.934.449-.622.673-1.533.673-2.734 0-1.2-.224-2.115-.673-2.745-.441-.629-1.124-.944-2.05-.944-.94 0-1.638.319-2.094.955-.449.63-.673 1.54-.673 2.734s.224 2.105.673 2.734c.456.623 1.153.934 2.094.934Zm17.126-9.234V41.21h-1.639c-.354 0-.578-.163-.672-.488l-.185-.89a6.092 6.092 0 0 1-1.508 1.129c-.55.282-1.197.423-1.942.423-.608 0-1.147-.102-1.617-.304a3.3 3.3 0 0 1-1.172-.879 3.917 3.917 0 0 1-.727-1.334 5.85 5.85 0 0 1-.238-1.715v-7.074h2.68v7.074c0 .68.155 1.208.466 1.584.319.37.792.554 1.422.554.462 0 .896-.102 1.302-.304a4.67 4.67 0 0 0 1.15-.857v-8.05h2.68Zm5.163 1.367c.224-.224.459-.43.705-.618a4.32 4.32 0 0 1 1.693-.803c.318-.08.665-.12 1.041-.12.608 0 1.147.106 1.617.315.47.203.861.492 1.172.868.318.37.557.814.716 1.335.166.513.249 1.081.249 1.703v7.085h-2.679v-7.085c0-.68-.156-1.204-.467-1.573-.311-.376-.785-.564-1.421-.564-.463 0-.897.105-1.302.315-.405.21-.789.495-1.15.857v8.05h-2.68V30.078h1.638c.347 0 .575.163.684.489l.184.878Zm20.823 9.765h-2.68v-9.124h-5.164v6.032c0 .347.083.618.249.814.174.195.409.293.706.293a1.3 1.3 0 0 0 .412-.055c.116-.043.213-.086.293-.13.087-.043.163-.083.228-.12a.35.35 0 0 1 .195-.064c.08 0 .145.021.195.065a.763.763 0 0 1 .163.173l.803 1.303a4.063 4.063 0 0 1-1.345.737 5.015 5.015 0 0 1-1.574.25c-.969 0-1.714-.271-2.235-.814-.513-.55-.77-1.306-.77-2.267v-6.217h-1.139a.522.522 0 0 1-.369-.141c-.101-.095-.152-.236-.152-.424v-1.063l1.79-.304.564-3.027a.597.597 0 0 1 .207-.336.611.611 0 0 1 .39-.12h1.389v3.505h7.844V41.21Zm.467-14.42a1.6 1.6 0 0 1-.141.663c-.094.202-.221.38-.38.531a1.763 1.763 0 0 1-.553.37 1.743 1.743 0 0 1-1.324 0 1.85 1.85 0 0 1-.532-.37 1.855 1.855 0 0 1-.368-.531 1.711 1.711 0 0 1-.131-.662 1.659 1.659 0 0 1 .499-1.204c.152-.16.33-.283.532-.37a1.627 1.627 0 0 1 1.324 0c.217.087.401.21.553.37a1.693 1.693 0 0 1 .521 1.204Zm4.775 4.655c.224-.224.459-.43.705-.618a4.32 4.32 0 0 1 1.693-.803c.318-.08.665-.12 1.041-.12.608 0 1.147.106 1.617.315.47.203.861.492 1.172.868.318.37.557.814.716 1.335.166.513.249 1.081.249 1.703v7.085h-2.68v-7.085c0-.68-.155-1.204-.466-1.573-.311-.376-.785-.564-1.421-.564-.463 0-.897.105-1.302.315-.405.21-.789.495-1.15.857v8.05h-2.68V30.078h1.638c.347 0 .575.163.684.489l.184.878Zm13.811 3.928c.332 0 .622-.043.868-.13a1.69 1.69 0 0 0 .607-.38c.167-.16.29-.35.369-.575.087-.224.13-.47.13-.738 0-.55-.166-.983-.499-1.302-.325-.325-.817-.488-1.475-.488-.658 0-1.154.163-1.487.488-.325.319-.488.753-.488 1.302 0 .26.04.503.119.727.087.224.21.42.369.586.167.16.373.286.619.38.253.087.542.13.868.13Zm3.027 6.336a.742.742 0 0 0-.195-.531 1.246 1.246 0 0 0-.532-.315 3.678 3.678 0 0 0-.792-.174 12.162 12.162 0 0 0-.955-.075c-.333-.022-.68-.04-1.041-.055a12.094 12.094 0 0 1-1.042-.087 2.58 2.58 0 0 0-.727.586 1.207 1.207 0 0 0-.271.782c0 .195.047.376.141.542.101.174.257.322.466.445.217.123.496.217.836.282.34.072.756.108 1.248.108.499 0 .929-.04 1.291-.119a2.81 2.81 0 0 0 .889-.315c.239-.13.413-.289.521-.477.109-.18.163-.38.163-.597Zm2.669-11.251v.998c0 .319-.192.514-.575.586l-.998.185c.152.383.228.803.228 1.258a3.28 3.28 0 0 1-1.248 2.626 4.377 4.377 0 0 1-1.389.727 5.673 5.673 0 0 1-1.714.25c-.217 0-.427-.012-.63-.033a7.876 7.876 0 0 1-.596-.087c-.347.21-.521.445-.521.705 0 .224.101.39.304.5.209.1.484.173.824.216.34.044.727.073 1.161.087.434.007.879.029 1.335.065.455.036.9.101 1.334.195.434.087.821.228 1.161.424.34.195.611.463.814.803.21.332.315.763.315 1.29 0 .492-.123.97-.369 1.433-.239.463-.59.875-1.053 1.237-.455.361-1.02.65-1.692.868-.666.224-1.425.336-2.279.336-.839 0-1.569-.083-2.191-.25-.622-.159-1.14-.376-1.552-.65-.412-.268-.72-.58-.922-.934a2.196 2.196 0 0 1-.304-1.106c0-.521.156-.955.467-1.302.318-.355.752-.637 1.302-.847a1.87 1.87 0 0 1-.706-.607c-.173-.253-.26-.586-.26-.998 0-.167.029-.337.087-.51.065-.181.155-.358.271-.532a2.61 2.61 0 0 1 .456-.488c.18-.16.394-.3.64-.423a3.562 3.562 0 0 1-1.335-1.215c-.318-.507-.477-1.1-.477-1.78 0-.55.108-1.045.325-1.486.225-.449.532-.828.923-1.14.397-.318.864-.56 1.399-.726a6.008 6.008 0 0 1 1.769-.25c.477 0 .926.05 1.345.152.42.094.803.235 1.15.423h3.201ZM18.07 21.796a1.349 1.349 0 0 1-.562-.25c-.279-.226-.31-.449-.33-.794a29.12 29.12 0 0 1 0-3.06c.043-.713.333-.905.985-1.105 5.989-.078 11.986-.009 17.98-.035.496 0 .786.357.827.826V31.76c-.186 5.643-4.475 10.164-9.765 11.614-3.178.87-6.66.321-9.95.478-.063 0-.124-.03-.185-.032-2.355-.13-4.77-.843-6.879-1.922-11.45-5.857-13.601-21.795-4.672-30.867 3.12-3.168 7.2-5.231 11.71-5.394 6.114-.22 12.323.099 18.447-.034.38.075.679-.053 1.01.205.19.151.234.322.252.56.093 1.194-.07 2.504 0 3.712 0 .348-.267.554-.554.693l-19.097.009c-5.631.47-10.196 4.704-11.585 10.1-2.15 8.348 3.16 17.3 12.119 17.695 1.841.081 3.903.096 5.742 0 3.886-.203 7.54-2.458 8.132-6.536V25.32c-.055-.015-.061.023-.093.046-.113.087-.27.264-.374.374-2.7 2.797-5.415 5.565-8.146 8.33-.36.362-.696.785-1.07 1.127-.375.342-.746.345-1.152.073l-2.958-2.948c-.383-.591-.055-.895.325-1.313l3.025-3.09c.098-.1.229-.2.333-.306l5.632-5.757-.032-.063H18.07v.003Z" fill="#6F6F6F"/></svg>