<svg fill="none" xmlns="http://www.w3.org/2000/svg" viewBox="0 0 184 48"><path d="M51.782 1.328h.938l2.09 2.909 1.389 1.984s.938-1.337 1.39-1.97l2.09-2.923h.937v8.575h-1.06v-6.79s-.223.409-.636.978L56.2 7.929l-2.736-3.863c-.383-.544-.621-.953-.621-.953v6.786h-1.06V1.328Zm10.826 0h6.477v.924h-5.418V4.86h5.073v.915h-5.073v3.2h5.617V9.9h-6.676V1.328Zm8.115 0h1.059v8.575h-1.06V1.328Zm6.248-.024h.952l4.019 8.6h-1.07l-.791-1.669h-5.248l-.792 1.669h-1.084l4.019-8.6h-.005Zm2.726 6.07-1.574-3.332c-.292-.622-.622-1.44-.676-1.547-.053.107-.37.915-.675 1.547l-1.575 3.332h4.5Zm-27.915 5.652h.938l2.09 2.91 1.389 1.984s.938-1.338 1.39-1.97l2.09-2.924h.937v8.576h-1.06v-6.786s-.223.409-.636.978l-2.72 3.838-2.736-3.862c-.383-.545-.621-.954-.621-.954v6.786h-1.06v-8.576Zm14.008-.024h.953l4.019 8.6h-1.07l-.791-1.669h-5.248l-.792 1.669h-1.084l4.019-8.6h-.005Zm2.727 6.07-1.575-3.331c-.291-.623-.621-1.44-.675-1.547-.053.107-.37.914-.675 1.546l-1.575 3.333h4.5Zm3.421-6.046h3.517c2.381 0 3.674 1.44 3.674 3.23 0 1.23-.715 2.34-1.968 2.846l2.036 2.5h-1.254L76.2 19.394a5.267 5.267 0 0 1-.831.068h-2.366v2.145h-1.06V13.03l-.004-.005Zm3.595 5.516c1.453 0 2.483-1.03 2.483-2.29s-1.015-2.316-2.473-2.316h-2.551v4.606h2.541Zm8.353-5.54h.952l4.018 8.6h-1.069l-.792-1.669h-5.247l-.792 1.669h-1.084l4.018-8.6h-.004Zm2.72 6.07-1.574-3.331c-.291-.623-.622-1.44-.675-1.547-.053.107-.37.914-.675 1.546l-1.575 3.333h4.5Zm4.854-5.122h-3.187v-.924h7.415v.925h-3.173v7.646h-1.059v-7.646h.005Zm4.903 3.362c0-2.462 1.915-4.417 4.466-4.417s4.455 1.96 4.455 4.417c0 2.456-1.914 4.416-4.455 4.416-2.542 0-4.466-1.96-4.466-4.416Zm7.823 0c0-1.907-1.453-3.454-3.357-3.454-1.905 0-3.372 1.547-3.372 3.454 0 1.906 1.452 3.453 3.372 3.453 1.919 0 3.357-1.547 3.357-3.453Zm2.751-4.286h1.059l4.271 5.57c.437.584.913 1.391.913 1.391v-6.96h1.06v8.575h-1.084l-4.188-5.438c-.515-.676-.967-1.484-.967-1.484v6.922h-1.06v-8.576h-.004Zm12.492-.024h.952l4.019 8.6h-1.069l-.792-1.669h-5.248l-.792 1.669h-1.083l4.018-8.6h-.005Zm2.721 6.07-1.574-3.331c-.292-.623-.622-1.44-.676-1.547-.053.107-.369.914-.675 1.546l-1.574 3.333h4.499Zm-70.368 5.653h3.25c2.751 0 4.48 1.945 4.48 4.285s-1.729 4.285-4.48 4.285h-3.25V24.72v.005Zm3.183 7.646c2.06 0 3.45-1.43 3.45-3.36 0-1.932-1.39-3.362-3.45-3.362h-2.128v6.722h2.128Zm9.188-7.675h.953l4.018 8.6h-1.07l-.791-1.669h-5.248l-.792 1.668H60.14l4.018-8.6h-.005Zm2.721 6.075L65.3 27.439c-.292-.623-.622-1.44-.675-1.547-.054.107-.37.915-.676 1.547l-1.574 3.332h4.499Zm16.088 6.567h-6.88l-.977 2.3h-3.221l6.02-13.434h3.26l6.02 13.434h-3.24l-.977-2.3h-.005Zm-3.43-8.1-2.318 5.449h4.621l-2.298-5.448h-.005Zm20.738 1.076-4.14 5.219h-.534l-4.01-5.258v9.383H88.6V26.223h3.43l3.912 5.16 3.93-5.16h3.392v13.435h-2.988v-9.344h-.005Zm15.491 7.024h-6.881l-.976 2.3h-3.222l6.02-13.434h3.261l6.02 13.434h-3.241l-.977-2.3h-.004Zm-3.431-8.1-2.318 5.449h4.621l-2.298-5.448h-.005Zm8.489-3.03h10.257v1.304l-6.443 9.325h6.594v2.801h-10.734v-1.556l6.555-9.305h-6.229v-2.574.005Zm26.127 6.718c0 4.378-2.955 7.043-7.245 7.043-4.291 0-7.245-2.665-7.245-7.043s2.954-7.044 7.245-7.044c4.29 0 7.245 2.666 7.245 7.044Zm-2.93 0c0-2.457-1.706-4.359-4.315-4.359-2.609 0-4.315 1.922-4.315 4.359 0 2.437 1.764 4.339 4.315 4.339s4.315-1.844 4.315-4.34Zm-5.025-10.94-2.876 2.685v.098h2.701l.88-.808.899.808h2.682v-.098l-2.857-2.685h-1.438.009Zm19.514 12.954-.189-4.222v-4.51h3.007v13.435h-2.57l-6.672-8.595.117 4.412v4.183h-3.027V26.208h2.57l6.769 8.732h-.005Zm5.807 4.703V26.208h2.973v13.435h-2.973Zm15.471-2.305h-6.881l-.976 2.3h-3.222l6.02-13.434h3.261l6.02 13.434h-3.241l-.977-2.3h-.004Zm-3.431-8.1-2.318 5.449h4.621l-2.298-5.448h-.005ZM5.097 16.884c.248.306.496.608.739.91v-1.708c-.268.287-.5.535-.739.798Zm32.089 1.731a86.472 86.472 0 0 0-.739-.958l-.461.375v1.57c.393-.32.787-.646 1.2-.987Zm-33.279-.253c-.233.34-.452.652-.68.983.13.083.223.16.335.214.758.375 1.52.75 2.279 1.124v-1.367c-.637-.316-1.278-.633-1.93-.954h-.004Zm36.52 9.452c.126-.069.277-.239.272-.36-.005-.34-.087-.681-.146-1.085a4765.4 4765.4 0 0 0-4.572 2.422v1.382c1.482-.788 2.964-1.571 4.441-2.364l.005.005Zm-.573-2.462c.14-.078.35-.248.34-.355-.044-.335-.175-.661-.287-1.046-1.331.71-2.633 1.401-3.916 2.087v1.382c1.287-.686 2.58-1.377 3.867-2.068h-.004ZM4.267 21.787c-.525-.467-1.055-.93-1.628-1.44-.141.248-.243.452-.37.637-.223.326-.16.535.146.803a509.696 509.696 0 0 1 3.426 3.035v-1.634c-.525-.467-1.05-.94-1.574-1.406v.005Zm33.483-1.615c.092-.15.165-.394.107-.53-.141-.316-.37-.594-.598-.944-.17.258-.306.457-.432.662-.277.452-.56.904-.836 1.357v2.325c.588-.959 1.176-1.912 1.764-2.87h-.005Zm2.172 16.475c.18-.044.442-.131.49-.263.127-.33.156-.7.243-1.167-1.56.38-3.114.754-4.67 1.128V37.6c1.313-.316 2.625-.637 3.937-.953Zm-3.936-4.47v1.24c1.52-.302 3.037-.603 4.553-.91.126-.024.301-.15.325-.252.063-.322.059-.652.088-1.056-1.672.33-3.324.657-4.966.978ZM1.05 23.888c-.092.258-.141.448-.229.628-.18.38-.106.627.316.768.248.083.476.214.71.326 1.331.623 2.658 1.25 3.989 1.873V26.13c-1.589-.745-3.183-1.489-4.791-2.243h.005Zm18.289 23.533c0 .375.02.608.505.579.71-.044.714-.01.714-.603v-2.714h-1.214c0 .914 0 1.824-.005 2.738ZM.292 26.85c-.044.248-.049.438-.112.604-.209.544.073.778.525 1.006 1.72.886 3.425 1.795 5.136 2.705v-1.372L.29 26.855v-.005ZM0 31.33v.745c-.005.33.122.5.486.51.428.01.855.088 1.283.127 1.355.136 2.711.277 4.072.413V31.91c-1.94-.19-3.883-.384-5.84-.579Zm.243 2.218c-.068 1.075.088 1.319.977 1.635l4.616 1.634v-1.294c-1.866-.661-3.732-1.318-5.598-1.98l.005.005Zm30.053-.364.034.107 5.656-1.114v-2.004c-1.71.905-3.421 1.814-5.131 2.719l-.554.292h-.005Z" fill="#6F6F6F"/><path d="M20.772 31.924c-.087.073-.194.185-.199.277-.02.657-.01 1.318-.01 2.063.477-.249.88-.453 1.283-.667 3.008-1.61 6.02-3.215 9.018-4.85.244-.13.418-.418.574-.666a994.917 994.917 0 0 0 3.304-5.34c.418-.677.83-1.348 1.249-2.024v-1.12c-.219.18-.433.356-.651.531-4.855 3.93-9.714 7.86-14.563 11.79l-.005.006ZM19.33 38.48c0-.101-.142-.228-.253-.286a2019.67 2019.67 0 0 0-8.474-4.5c-.195-.102-.442-.131-.666-.155-1.365-.141-2.73-.278-4.096-.414v2.398c4.48 1.586 8.97 3.172 13.498 4.772 0-.661.015-1.24-.01-1.82v.006Zm-.9-2.14c-.485-1.172-.962-2.349-1.462-3.511-.054-.122-.209-.22-.34-.278-3.596-1.693-7.192-3.38-10.787-5.068v2.305c4.183 2.219 8.352 4.427 12.517 6.635.024-.029.048-.053.072-.083ZM7.25 31.948c-.306-.175-.603-.36-.914-.525l-.495-.263v.75c.457.043.913.092 1.37.135.015-.029.03-.063.044-.092l-.005-.005Zm11.662 9.49a4142.353 4142.353 0 0 1-13.071-4.62v7.86h13.508c0-.876 0-1.747.005-2.622 0-.345-.098-.501-.442-.618Zm7.473-6.128a1.275 1.275 0 0 0-.34.136c-1.725.91-3.455 1.819-5.17 2.748-.151.082-.287.316-.302.491-.043.438-.014.88-.014 1.396 5.16-1.25 10.277-2.486 15.427-3.736v-2.933l-5.753 1.139c-1.283.252-2.566.496-3.843.748l-.005.01Zm-5.418 5.91c-.302.072-.418.204-.418.534.01.973.01 1.95.01 2.924H35.98V37.6l-3.994.963c-3.673.886-7.347 1.776-11.025 2.656h.005Zm-7.784-11.636c.874.414 1.754.817 2.638 1.226.093.044.19.063.374.015-.204-.365-.354-.774-.612-1.09a818.08 818.08 0 0 0-5.52-6.756 2.198 2.198 0 0 0-.714-.55 780.671 780.671 0 0 0-3.508-1.741v2.51c2.25 2.013 4.5 4.027 6.754 6.036.17.15.379.258.588.355v-.005Zm20.237-2.179c.85-.452 1.706-.91 2.566-1.367v-2.991c-.797 1.298-1.599 2.592-2.4 3.891a.949.949 0 0 0-.166.467Z" fill="#6F6F6F"/><path d="M14 25.843a.682.682 0 0 1 .086-.038c-.17-.414-.335-.827-.505-1.24-1.448-3.513-2.881-7.03-4.358-10.532-.204-.486-.136-.724.31-.924.166-.073.316-.18.52-.297 3.076 7.462 6.128 14.88 9.238 22.424.029-.243.053-.355.053-.467 0-4.066.01-8.133-.015-12.2 0-.31-.155-.65-.325-.923-2.06-3.284-4.14-6.557-6.21-9.836-.039-.063-.078-.131-.165-.277.354-.136.675-.292 1.02-.374.093-.025.272.155.355.282 1.686 2.65 3.357 5.306 5.034 7.957.063.103.136.2.262.395.024-.21.049-.317.049-.429 0-1.245.014-2.495-.015-3.74a1.627 1.627 0 0 0-.252-.803c-.836-1.294-1.701-2.563-2.556-3.847-.102-.151-.19-.307-.345-.56.447-.068.811-.146 1.18-.16.107 0 .243.16.326.277.52.759 1.03 1.527 1.662 2.272v-1.075c0-.4.024-.803-.01-1.202-.039-.433.136-.56.55-.545.67.02.67 0 .67.681v2.262c.126-.121.209-.175.257-.253.481-.715.972-1.425 1.424-2.155.209-.335.447-.471.83-.374.234.058.477.097.783.155-.238.37-.447.701-.666 1.032-.801 1.201-1.613 2.403-2.41 3.609-.111.17-.209.39-.213.589-.02 1.337-.015 2.68-.01 4.017 0 .054.02.112.048.253.122-.155.204-.253.273-.36 1.695-2.675 3.406-5.345 5.077-8.04.287-.462.55-.598 1.02-.365.151.073.311.122.516.2-.107.19-.19.345-.287.5-2.148 3.396-4.295 6.786-6.438 10.186-.102.16-.2.36-.204.545-.015 1.542-.005 3.079 0 4.62 0 .045.024.084.063.215.447-.57.86-1.09 1.263-1.615 1.263-1.63 2.532-3.259 3.776-4.898.199-.263.354-.58.447-.895.753-2.583 1.482-5.176 2.225-7.764.044-.146.092-.291.16-.496.321.146.647.248.914.433.097.068.112.35.068.506-.413 1.498-.85 2.987-1.278 4.48a.875.875 0 0 0-.024.491c.928-1.196 1.856-2.398 2.784-3.594.408-.529.87-.58 1.385-.151.043.039.073.092.136.175-.642.827-1.273 1.654-1.915 2.48-3.265 4.223-6.545 8.44-9.786 12.687-.238.31-.213.817-.316 1.235.059.03.117.063.175.093 5.098-4.125 10.195-8.25 15.33-12.414V0H5.842v16.086c.034-.034.063-.068.097-.102 2.706 3.312 5.384 6.586 8.061 9.86Zm7.093 9.52c-.418.219-.612.452-.54.914.03.19.005.39.005.686 5.166-2.739 10.282-5.448 15.428-8.177V27.41c-1.074.569-2.143 1.143-3.217 1.712-3.892 2.082-7.774 4.173-11.676 6.236v.005ZM7.75 20.143c-.631-.779-1.268-1.557-1.914-2.35v1.523l1.841.91.073-.088v.005Zm.802 7.16c-.082-.088-.155-.19-.243-.268a532.05 532.05 0 0 1-2.468-2.213v1.309c.884.413 1.768.826 2.648 1.24.02-.024.044-.044.063-.068Z" fill="#6F6F6F"/></svg>