<svg width="180" height="180" fill="none" xmlns="http://www.w3.org/2000/svg"><g clip-path="url(#Frame__a)"><mask id="Frame__b" style="mask-type:alpha" maskUnits="userSpaceOnUse" x="0" y="0" width="180" height="180"><path d="M90 180c49.706 0 90-40.294 90-90S139.706 0 90 0 0 40.294 0 90s40.294 90 90 90Z" fill="#000"/></mask><g mask="url(#Frame__b)"><path d="M90 177c48.049 0 87-38.951 87-87S138.049 3 90 3 3 41.951 3 90s38.951 87 87 87Z" fill="#000" stroke="#EEE" stroke-width="6"/><path d="M149.508 157.52 69.142 54H54v71.97h12.114V69.384l73.885 95.461a90.304 90.304 0 0 0 9.509-7.325Z" fill="url(#Frame__c)"/><path d="M127 54h-12v72h12V54Z" fill="url(#Frame__d)"/></g></g><defs><linearGradient id="Frame__c" x1="109" y1="116.5" x2="144.5" y2="160.5" gradientUnits="userSpaceOnUse"><stop stop-color="#fff"/><stop offset="1" stop-color="#fff" stop-opacity="0"/></linearGradient><linearGradient id="Frame__d" x1="121" y1="54" x2="120.799" y2="106.875" gradientUnits="userSpaceOnUse"><stop stop-color="#fff"/><stop offset="1" stop-color="#fff" stop-opacity="0"/></linearGradient><clipPath id="Frame__a"><path fill="#fff" d="M0 0h180v180H0z"/></clipPath></defs></svg>