<svg fill="none" xmlns="http://www.w3.org/2000/svg" viewBox="0 0 286 48"><path d="M59.843 41.833h-.083c-.47 1.255-2.019 1.742-4.104 1.742-2.384 0-4.149-.852-4.149-3.125 0-2.766 1.914-3.363 4.613-3.363 1.212 0 2.235.066 3.618.254v-1.615c0-1.405-.852-2.168-3.573-2.168-1.129 0-2.384.066-3.767.276a3.085 3.085 0 0 1 0-1.233 25.362 25.362 0 0 1 4.104-.32c3.064 0 4.657 1.023 4.657 2.953v8.186c-.32.083-.83.083-1.172 0l-.15-1.593.006.006Zm-.11-3.407a26.977 26.977 0 0 0-3.38-.233c-2.19 0-3.446.299-3.446 2.146 0 1.743 1.488 1.958 3.147 1.958 2.295 0 3.02-.486 3.678-1.808v-2.063Zm13.484 3.407h-.105c-.426 1.277-2.019 1.742-4.148 1.742-2.445 0-4.232-.852-4.232-3.103v-5.061c0-2.273 1.787-3.125 4.232-3.125 2.13 0 3.722.487 4.148 1.742h.105l-.127-1.742v-4.32a5.137 5.137 0 0 1 1.427 0v15.443a2.69 2.69 0 0 1-1.15 0l-.15-1.576Zm-.127-6.34c-.636-1.443-1.338-1.935-3.7-1.935-1.787 0-3.23.232-3.23 2.318v4.126c0 1.997 1.443 2.273 3.23 2.273 2.362 0 3.064-.509 3.7-1.914v-4.873.006Zm4.386-2.936c.487-.083 1.084-.083 1.488 0l3.7 9.104 3.656-9.104a4.22 4.22 0 0 1 1.444 0L83.36 43.32c-.382.083-1.062.083-1.466 0L77.47 32.556h.006Zm22.285 7.804c0 2.34-1.936 3.214-4.873 3.214-2.937 0-4.85-.874-4.85-3.214v-4.85c0-2.385 1.935-3.23 4.85-3.23 2.915 0 4.873.851 4.873 3.23v4.85Zm-1.421-4.59c0-1.959-1.577-2.213-3.447-2.213-1.869 0-3.423.254-3.423 2.212v4.32c0 1.936 1.554 2.19 3.424 2.19 1.87 0 3.445-.254 3.445-2.19v-4.32Zm13.358 7.356.127-1.681h-.105c-.426 1.277-2.019 1.742-4.149 1.742-2.445 0-4.231-.852-4.231-3.125v-4.658c0-2.273 1.786-3.125 4.231-3.125 2.13 0 3.723.487 4.149 1.743h.105l.149-1.533a2.691 2.691 0 0 1 1.151 0v12.02c0 2.406-1.743 3.49-5.017 3.49-1.256 0-2.639-.083-4.127-.343-.022-.32.023-.913.15-1.211 1.278.193 2.467.32 3.933.32 2.168 0 3.639-.425 3.639-2.256v-1.383h-.005Zm0-7.633c-.637-1.444-1.339-1.936-3.701-1.936-1.786 0-3.23.232-3.23 2.318v3.744c0 1.997 1.444 2.274 3.23 2.274 2.362 0 3.064-.51 3.701-1.892v-4.508Zm13.208 6.339h-.083c-.47 1.255-2.018 1.742-4.104 1.742-2.384 0-4.148-.852-4.148-3.125 0-2.766 1.914-3.363 4.613-3.363 1.211 0 2.234.066 3.617.254v-1.615c0-1.405-.852-2.168-3.573-2.168a24.88 24.88 0 0 0-3.767.276 3.085 3.085 0 0 1 0-1.233 25.368 25.368 0 0 1 4.105-.32c3.064 0 4.657 1.023 4.657 2.953v8.186c-.321.083-.83.083-1.167 0l-.15-1.593v.006Zm-.11-3.407a26.982 26.982 0 0 0-3.38-.233c-2.19 0-3.446.299-3.446 2.146 0 1.743 1.488 1.958 3.147 1.958 2.296 0 3.021-.486 3.679-1.808v-2.063Zm13.485 3.407h-.105c-.426 1.277-2.019 1.742-4.149 1.742-2.445 0-4.231-.852-4.231-3.103v-5.061c0-2.273 1.786-3.125 4.231-3.125 2.13 0 3.723.487 4.149 1.742h.105l-.127-1.742v-4.32a5.136 5.136 0 0 1 1.427 0v15.443a2.691 2.691 0 0 1-1.151 0l-.149-1.576Zm-.127-6.34c-.636-1.443-1.339-1.935-3.701-1.935-1.786 0-3.23.232-3.23 2.318v4.126c0 1.997 1.444 2.273 3.23 2.273 2.362 0 3.065-.509 3.701-1.914v-4.873.006Zm15.189 4.868c0 2.34-1.936 3.214-4.873 3.214-2.938 0-4.851-.874-4.851-3.214v-4.85c0-2.385 1.936-3.23 4.851-3.23s4.873.851 4.873 3.23v4.85Zm-1.427-4.59c0-1.959-1.571-2.213-3.446-2.213-1.876 0-3.424.254-3.424 2.212v4.32c0 1.936 1.554 2.19 3.424 2.19 1.869 0 3.446-.254 3.446-2.19v-4.32Zm12.7 4.994c0 2.041-1.721 2.81-4.21 2.81-1.167 0-2.638-.083-3.827-.343a2.541 2.541 0 0 1 0-1.255c1.233.21 2.511.298 3.722.298 1.405 0 2.893-.171 2.893-1.681v-.448c0-.957-.636-1.167-1.764-1.427l-2.296-.531c-1.726-.404-2.66-1.024-2.66-2.362v-.786c0-1.98 1.742-2.765 4.552-2.765 1.062 0 2.063.083 3.468.32.105.382.105.852 0 1.234-1.383-.232-2.213-.299-3.38-.299-1.742 0-3.213.172-3.213 1.682v.426c0 .852.68 1.128 1.742 1.383l2.273.508c1.892.448 2.7.98 2.7 2.49v.746Zm16.035 1.068h-.083c-.47 1.255-2.019 1.742-4.104 1.742-2.384 0-4.149-.852-4.149-3.125 0-2.766 1.914-3.363 4.613-3.363 1.212 0 2.235.066 3.618.254v-1.615c0-1.405-.852-2.168-3.573-2.168a24.87 24.87 0 0 0-3.767.276 3.085 3.085 0 0 1 0-1.233 25.364 25.364 0 0 1 4.104-.32c3.064 0 4.657 1.023 4.657 2.953v8.186c-.32.083-.829.083-1.167 0l-.149-1.593v.006Zm-.105-3.407a27.059 27.059 0 0 0-3.38-.233c-2.19 0-3.446.299-3.446 2.146 0 1.743 1.488 1.958 3.148 1.958 2.295 0 3.02-.486 3.678-1.808v-2.063Zm12.699 2.339c0 2.041-1.721 2.81-4.21 2.81-1.172 0-2.638-.083-3.827-.343a2.541 2.541 0 0 1 0-1.255c1.233.21 2.511.298 3.722.298 1.405 0 2.893-.171 2.893-1.681v-.448c0-.957-.636-1.167-1.764-1.427l-2.296-.531c-1.72-.404-2.66-1.024-2.66-2.362v-.786c0-1.98 1.742-2.765 4.552-2.765 1.062 0 2.063.083 3.468.32.105.382.105.852 0 1.234-1.383-.232-2.213-.299-3.38-.299-1.742 0-3.213.172-3.213 1.682v.426c0 .852.68 1.128 1.742 1.383l2.273.508c1.892.448 2.7.98 2.7 2.49v.746Zm10.825 0c0 2.041-1.721 2.81-4.21 2.81-1.172 0-2.638-.083-3.827-.343a2.541 2.541 0 0 1 0-1.255c1.233.21 2.511.298 3.722.298 1.405 0 2.893-.171 2.893-1.681v-.448c0-.957-.636-1.167-1.764-1.427l-2.296-.531c-1.725-.404-2.66-1.024-2.66-2.362v-.786c0-1.98 1.742-2.765 4.552-2.765 1.062 0 2.063.083 3.468.32.105.382.105.852 0 1.234-1.383-.232-2.212-.299-3.38-.299-1.742 0-3.213.172-3.213 1.682v.426c0 .852.68 1.128 1.742 1.383l2.279.508c1.892.448 2.699.98 2.699 2.49v.746h-.005Zm12.849-.404c0 2.34-1.936 3.214-4.873 3.214-2.937 0-4.851-.874-4.851-3.214v-4.85c0-2.385 1.936-3.23 4.851-3.23s4.873.851 4.873 3.23v4.85Zm-1.427-4.59c0-1.959-1.577-2.213-3.446-2.213-1.87 0-3.424.254-3.424 2.212v4.32c0 1.936 1.554 2.19 3.424 2.19 1.869 0 3.446-.254 3.446-2.19v-4.32Zm4.999-.321c0-2.384 1.765-3.214 4.575-3.214 1.211 0 2.4.066 3.744.32.083.36.083.875 0 1.234-1.255-.21-2.124-.276-3.595-.276-1.726 0-3.297.254-3.297 2.212v4.32c0 1.936 1.571 2.19 3.297 2.19 1.488 0 2.34-.105 3.595-.342.083.359.083.89 0 1.255-1.338.255-2.511.382-3.744.382-2.849 0-4.575-.874-4.575-3.192v-4.89Zm13.187-5.404a5.133 5.133 0 0 1-1.593 0l-.044-1.532a5.712 5.712 0 0 1 1.681 0l-.044 1.532Zm-1.51 2.51a4.125 4.125 0 0 1 1.427 0v10.765a4.12 4.12 0 0 1-1.427 0V32.557Zm13.209 9.277h-.083c-.47 1.255-2.019 1.742-4.104 1.742-2.384 0-4.148-.852-4.148-3.125 0-2.766 1.913-3.363 4.613-3.363 1.211 0 2.234.066 3.617.254v-1.615c0-1.405-.852-2.168-3.573-2.168a24.87 24.87 0 0 0-3.767.276 3.085 3.085 0 0 1 0-1.233 25.364 25.364 0 0 1 4.104-.32c3.065 0 4.658 1.023 4.658 2.953v8.186a2.77 2.77 0 0 1-1.168 0l-.149-1.593v.006Zm-.105-3.407a27.059 27.059 0 0 0-3.38-.233c-2.19 0-3.446.299-3.446 2.146 0 1.743 1.488 1.958 3.148 1.958 2.295 0 3.02-.486 3.678-1.808v-2.063Zm13.48 3.407h-.106c-.425 1.277-2.018 1.742-4.148 1.742-2.445 0-4.231-.852-4.231-3.103v-5.061c0-2.273 1.786-3.125 4.231-3.125 2.13 0 3.723.487 4.148 1.742h.106l-.128-1.742v-4.32a5.136 5.136 0 0 1 1.427 0v15.443a2.687 2.687 0 0 1-1.15 0l-.149-1.576Zm-.128-6.34c-.636-1.443-1.338-1.935-3.7-1.935-1.787 0-3.23.232-3.23 2.318v4.126c0 1.997 1.443 2.273 3.23 2.273 2.362 0 3.064-.509 3.7-1.914v-4.873.006Zm15.189 4.868c0 2.34-1.936 3.214-4.873 3.214-2.937 0-4.851-.874-4.851-3.214v-4.85c0-2.385 1.936-3.23 4.851-3.23s4.873.851 4.873 3.23v4.85Zm-1.427-4.59c0-1.959-1.577-2.213-3.446-2.213-1.87 0-3.424.254-3.424 2.212v4.32c0 1.936 1.554 2.19 3.424 2.19 1.869 0 3.446-.254 3.446-2.19v-4.32Zm12.699 4.994c0 2.041-1.72 2.81-4.209 2.81-1.173 0-2.639-.083-3.828-.343a2.541 2.541 0 0 1 0-1.255c1.233.21 2.511.298 3.722.298 1.405 0 2.893-.171 2.893-1.681v-.448c0-.957-.636-1.167-1.764-1.427l-2.296-.531c-1.72-.404-2.66-1.024-2.66-2.362v-.786c0-1.98 1.742-2.765 4.552-2.765 1.062 0 2.063.083 3.468.32.105.382.105.852 0 1.234-1.383-.232-2.212-.299-3.379-.299-1.743 0-3.214.172-3.214 1.682v.426c0 .852.68 1.128 1.742 1.383l2.274.508c1.891.448 2.699.98 2.699 2.49v.746ZM68.067 8.612c0 3.972-3.213 5.338-8.396 5.338h-3.91v6.975c-1.245.121-3.093.15-4.426 0V.426h8.336c5.183 0 8.396 1.394 8.396 5.426v2.76Zm-4.391-1.914c0-2.212-1.82-2.577-4.033-2.577H55.76v6.184h3.883c2.213 0 4.033-.332 4.033-2.517v-1.09ZM72.072.426c1.306-.122 3.186-.122 4.425 0v20.493c-1.244.122-3.125.122-4.425 0V.426Zm13.707 6.792v13.707a21.958 21.958 0 0 1-4.425 0V.425a31.472 31.472 0 0 1 4.79 0l8.761 14.006V.426a26.853 26.853 0 0 1 4.425 0v20.493a33.485 33.485 0 0 1-4.939 0L85.78 7.213v.005Zm31.561 5.183h-8.734v8.518c-1.244.122-3.125.122-4.425 0V.426c1.333-.122 3.153-.122 4.425 0v8.092h8.734V.426c1.272-.122 3.186-.122 4.425 0v20.493c-1.245.122-3.125.122-4.425 0v-8.518Zm9.281 8.519V.425h14.249c.149 1.029.149 2.544 0 3.579h-9.824v4.823h9.519c.15 1.029.15 2.517 0 3.518h-9.519v5h9.824c.149 1.001.149 2.578 0 3.579h-14.249v-.006ZM145.117.426c1.306-.122 3.186-.122 4.425 0v20.493c-1.244.122-3.125.122-4.425 0V.426Zm26.014 7.971c0 2.666-1.515 4.093-4.121 4.762 1.82 2.456 3.275 5.243 4.459 7.76-1.245.122-3.424.122-4.669 0-1.15-2.367-2.544-4.972-4.303-7.306h-3.667v7.306a26.861 26.861 0 0 1-4.425 0V.426h8.335c5.183 0 8.397 1.394 8.397 5.304v2.667h-.006Zm-4.397-1.76c0-2.245-1.881-2.516-4.154-2.516h-3.761v5.852h3.761c2.273 0 4.154-.271 4.154-2.423v-.912Zm26.257 8.978c0 4.275-3.579 5.67-8.944 5.67-5.366 0-8.978-1.395-8.978-5.67V5.67c0-4.215 3.546-5.67 8.978-5.67 5.431 0 8.944 1.455 8.944 5.67v9.945Zm-4.425-9.1c0-2.516-2.064-2.82-4.519-2.82-2.456 0-4.547.304-4.547 2.82v8.248c0 2.456 2.063 2.76 4.547 2.76 2.483 0 4.519-.304 4.519-2.76V6.516Zm16.527 14.405V.425h8.944c5.277 0 8.49 1.394 8.49 5.548v9.397c0 4.121-3.213 5.548-8.49 5.548h-8.944Zm13.031-14.128c0-2.306-1.847-2.666-4.093-2.666h-4.519v13.037h4.519c2.246 0 4.093-.392 4.093-2.605V6.792ZM226.98.426c1.305-.122 3.186-.122 4.425 0v20.493c-1.245.122-3.125.122-4.425 0V.426Zm13.707 6.792v13.707a21.958 21.958 0 0 1-4.425 0V.425a31.47 31.47 0 0 1 4.79 0l8.761 14.006V.426a26.852 26.852 0 0 1 4.425 0v20.493a33.48 33.48 0 0 1-4.939 0l-8.612-13.706v.005ZM259.089.426c1.305-.122 3.186-.122 4.425 0v20.493c-1.245.122-3.125.122-4.425 0V.426Zm8.43 20.494c-.15-1.002-.15-2.7 0-3.701L278.012 4.06h-10.156c-.149-1.029-.149-2.605 0-3.64h15.371c.122 1.03.122 2.639 0 3.7l-10.492 13.1h10.642c.149 1 .149 2.699 0 3.7h-15.858ZM0 .426h29.907c4.95 0 8.972 4.021 8.972 8.972v34.465H0V.426Z" fill="#6F6F6F"/><path d="M14.796 34.288v-12.66a5.757 5.757 0 0 1 5.758-5.759h2.572c4.867 0 7.898 1.245 7.898 4.95v8.491c0 3.706-3.03 4.978-7.926 4.978h-8.302ZM26.29 21.766c0-1.676-1.433-1.947-3.164-1.947a3.595 3.595 0 0 0-3.595 3.595v6.87h3.595c1.731 0 3.164-.271 3.164-1.864v-6.654Z" stroke="#B3B3B3" stroke-width="1.5" stroke-miterlimit="10"/><path d="M25.753 18.867c0 4.066-3.445 5.46-8.933 5.46h-3.534v6.792c-1.521.121-3.783.155-5.426 0V15.742a5.746 5.746 0 0 1 5.747-5.747h3.219c5.492 0 8.933 1.427 8.933 5.553v3.32h-.006Zm-5.431-2.14c0-1.892-1.615-2.202-3.568-2.202H14.26a.977.977 0 0 0-.979.98v4.419h3.474c1.953 0 3.568-.31 3.568-2.174v-1.023Z" fill="#B3B3B3"/></svg>