<svg fill="none" xmlns="http://www.w3.org/2000/svg" viewBox="0 0 158 50"><path d="M150.54 49.138c-.388-.083-.781-.154-1.164-.253-2.64-.684-4.489-2.234-5.095-4.954-.746-3.349 1.26-6.572 4.6-7.57 2.865-.858 5.931 0 7.688 2.143.782.956 1.208 2.052 1.346 3.271.009.085.057.166.085.25v1.185c-.03.055-.076.106-.087.165-.473 2.852-2.385 4.888-5.195 5.52-.412.094-.831.163-1.246.244h-.933l.001-.001Zm4.594-6.51c0-2.411-1.702-4.17-4.042-4.173-2.368-.004-4.12 1.733-4.125 4.094-.005 2.344 1.744 4.13 4.049 4.132 2.349.002 4.118-1.739 4.118-4.056v.002Zm-52.156 6.51c-.208-.051-.415-.117-.625-.152-2.499-.422-4-1.967-4.088-4.476-.093-2.72-.021-5.445-.021-8.199h2.743v.435c0 2.327-.004 4.657.003 6.984 0 .35.016.707.08 1.052.244 1.29 1.228 1.991 2.626 1.898 1.214-.082 2.112-.951 2.151-2.199.049-1.606.023-3.216.026-4.824.002-1.112 0-2.222 0-3.355h2.759c.012.048.037.098.037.149-.002 2.525.041 5.052-.021 7.576-.074 3.075-1.661 4.726-4.699 5.031-.044.004-.083.053-.124.082h-.848l.001-.002Zm13.311 0c-.375-.085-.749-.164-1.122-.258-1.819-.461-2.983-1.974-2.837-3.7h2.664c-.041.779.373 1.249 1.044 1.473.764.256 1.518.194 2.14-.378.548-.506.502-1.319-.134-1.75-.412-.279-.903-.443-1.368-.638-.7-.293-1.43-.523-2.11-.855-1.707-.834-2.327-1.986-2.103-3.778.189-1.5 1.348-2.7 2.988-3.063 1.245-.274 2.475-.235 3.646.3 1.421.649 2.079 1.831 2.259 3.369h-2.761c-.008-.029-.028-.08-.04-.131-.295-1.214-1.365-1.74-2.54-1.244-.465.196-.762.542-.807 1.05-.043.475.15.89.563 1.106.583.304 1.207.534 1.813.79.686.29 1.402.527 2.056.876 1.175.63 1.815 1.64 1.797 2.989-.019 1.412-.645 2.525-1.921 3.145-.656.319-1.419.416-2.133.614-.085.023-.168.056-.251.083h-.848.005Zm-37.135 0c-.334-.067-.67-.133-1.002-.204-2.626-.56-4.538-2.564-4.92-5.22-.343-2.4.244-4.514 2.122-6.147 1.319-1.147 2.915-1.558 4.63-1.537 1.94.023 3.684.762 4.841 2.03l-1.76 1.674c-2.44-1.71-4.736-1.682-6.19.06-1.353 1.619-1.208 4.277.278 5.761 1.202 1.2 3.982 1.82 5.894-.14.051.045.106.086.154.133.5.532 1 1.066 1.522 1.62-1.034.936-2.183 1.576-3.546 1.8-.335.055-.671.113-1.007.171h-1.018l.002-.001ZM10.503 29.003c-.108-.27-.166-.49-.277-.682-.278-.477-.794-.49-1.013.013-.163.37-.21.81-.22 1.22-.004.216-.027.33-.213.429-.373.197-.735.411-1.115.625-.115-.245-.193-.486-.327-.689-.253-.384-.725-.407-.924 0-.172.35-.244.774-.253 1.166-.007.303-.1.446-.35.584-1.808 1.012-3.609 2.04-5.413 3.062-.096.055-.198.1-.375.19v-.53c0-7.549.044-15.098-.023-22.648-.024-2.842 1.783-5.147 4.134-6.13 1.03-.43 2.105-.612 3.22-.609 1.61.007 3.221.002 4.831.002h.476c.056-.912.258-1.743.717-2.488C14.354.938 15.766.059 17.632.02c1.224-.025 2.467-.057 3.676.1 2.154.278 3.948 2.3 4.086 4.463.023.369.166.43.49.429 1.823-.009 3.647-.016 5.469.009 2.794.037 5.45 1.864 6.39 4.44a5.97 5.97 0 0 1 .359 1.98c.025 7.706.016 15.409.014 23.114 0 .108-.01.216-.02.384-.74-.416-1.436-.806-2.13-1.198-1.254-.707-2.501-1.423-3.758-2.121-.261-.145-.367-.283-.35-.617.02-.345-.08-.732-.238-1.044-.239-.469-.729-.442-.997.015-.104.18-.173.38-.267.59l-1.264-.713c-.077-.515-.084-.958-.226-1.354-.078-.217-.378-.491-.578-.491-.201 0-.419.293-.597.488-.087.095-.097.258-.163.443-.132-.063-.256-.113-.37-.178-.962-.536-1.915-1.085-2.883-1.609-.908-.49-1.3-1.23-1.352-2.262-.069-1.431-.235-2.86-.392-4.285-.152-1.368-.31-2.74-.534-4.097-.166-1.01-.558-1.95-1.302-2.698-1.026-1.03-2.57-.95-3.503.16-.804.957-1.142 2.095-1.278 3.298-.33 2.907-.626 5.816-.958 8.723-.026.237-.173.552-.362.667-1.341.802-2.707 1.562-4.091 2.346Zm-2.138-2.806-.932.401.06.124.964-.44c1.021-.438 2.081-.804 3.053-1.33 1.168-.634 1.93-1.644 2.125-2.996.107-.751.192-1.51.219-2.268.037-1.141.007-2.285.017-3.426.01-.962.34-1.806 1.056-2.455.614-.557 1.28-1.055 1.924-1.578l.05-.074a1.924 1.924 0 0 1-.098.024c-.267.126-.539.242-.797.38-1.87.997-2.82 2.481-2.647 4.671.1 1.27.021 2.555.01 3.835-.014 1.728-.775 3.036-2.295 3.854-.878.472-1.804.854-2.71 1.278ZM21.08 12.13c-.023-.013-.044-.025-.067-.036l.063.04c.45.335.909.657 1.345 1.007.804.645 1.538 1.37 1.68 2.444.091.677.026 1.371.05 2.057.045 1.223.078 2.446.165 3.665.118 1.684.913 2.987 2.423 3.76.96.49 1.986.854 2.983 1.275l1.281.576.055-.115-1.336-.602c-.834-.377-1.69-.713-2.497-1.138-1.158-.61-2.11-1.455-2.374-2.807-.148-.767-.192-1.562-.208-2.347-.029-1.306.067-2.619-.006-3.921-.093-1.676-1.866-3.535-3.555-3.858h-.002Zm2.092-7.142c.006-.1.021-.182.01-.261-.15-1.161-1.042-2.211-2.19-2.398-.785-.13-1.6-.092-2.402-.1-.491-.003-.995-.006-1.47.096-1.273.272-2.234 1.486-2.16 2.663h8.212ZM7.16 26.826s-.017-.023-.026-.023c-.01 0-.02.013-.03.02.009.009.017.023.026.023.009 0 .02-.013.03-.02Zm-.166.087s-.014-.023-.023-.025c-.009 0-.02.012-.028.02.007.008.014.022.023.024.009 0 .02-.012.028-.02Zm10.052-14.847c-.009.005-.017.012-.026.018.007.009.014.021.021.023.009 0 .018-.01.027-.016l-.022-.025ZM7.33 26.743c-.009-.01-.018-.026-.027-.028-.01 0-.02.014-.031.023.01.009.019.026.03.026.01 0 .02-.014.03-.02H7.33Z" fill="#6F6F6F"/><path d="M31.426 49.069c-1.105 0-2.211-.002-3.316-.004-.085-.003-.171-.02-.252-.008-1.374.18-2.59-.193-3.73-.962-.66-.445-1.392-.79-2.097-1.166-.293-.157-.422-.355-.38-.71.267-2.178.516-4.357.767-6.538.182-1.578.353-3.158.532-4.736.021-.18.06-.357.095-.555 2.805.84 5.585 1.672 8.363 2.506 2.122.636 4.241 1.28 6.366 1.907.249.074.358.163.353.445-.026 1.326.078 2.662-.06 3.973-.269 2.545-1.77 4.245-4.07 5.22-.8.34-1.709.428-2.57.63l-.001-.002Zm-19.164-.013-5.6.011c-2.615-.24-4.679-1.375-5.983-3.711a5.301 5.301 0 0 1-.666-2.591c-.007-1.172.007-2.342-.009-3.513-.004-.258.081-.368.32-.439 4.89-1.465 9.776-2.935 14.723-4.421.09.73.18 1.445.265 2.161.19 1.592.375 3.185.56 4.777.193 1.663.382 3.326.578 4.989.039.329-.147.479-.401.617-1.158.634-2.312 1.28-3.466 1.922-.11.062-.215.133-.321.2v-.002Zm114.114-17.37c-3.048-.171-5.897-1.592-7.514-4.936-1.394-2.88-.717-6.47 1.575-8.804 2.087-2.126 4.664-2.863 7.565-2.61 2.443.213 4.472 1.256 5.96 3.22 3.034 4 1.694 9.78-2.772 12.091-1.341.695-2.762 1.043-4.814 1.04Zm.497-3.56c2.545-.043 4.667-1.925 4.641-4.605-.027-2.826-2.029-4.681-4.6-4.672-2.741.009-4.629 1.942-4.673 4.646-.042 2.532 2.071 4.62 4.632 4.63Zm-52.33 3.583c-3.337-.15-6.039-1.412-7.77-4.35-1.618-2.742-1.279-6.345.757-8.835 1.598-1.955 3.67-2.978 6.168-3.194 2.928-.25 5.477.548 7.483 2.762 1.194 1.319 1.802 2.899 1.968 4.666.414 4.377-2.79 8.131-7.189 8.826-.472.074-.954.084-1.417.125Zm4.552-8.163c0-2.67-1.954-4.727-4.558-4.704-2.762.024-4.669 1.958-4.694 4.669-.022 2.548 2.077 4.612 4.643 4.614a4.568 4.568 0 0 0 4.607-4.579h.002Zm12.935 1.955v5.828h-4.007V15.617c.144-.01.266-.023.39-.023 1.906.001 3.813-.007 5.72.016 1.02.012 2.018.183 2.974.565 1.71.682 2.598 1.997 2.792 3.764a7.964 7.964 0 0 1-.114 2.344c-.285 1.488-1.225 2.5-2.59 3.133-.11.051-.222.106-.383.184l3.575 5.724c-.161.018-.263.039-.367.039-1.356.002-2.713-.007-4.069.009-.286.003-.422-.112-.558-.343-1.016-1.74-2.045-3.475-3.072-5.21-.069-.117-.146-.228-.22-.343-.025.009-.05.016-.073.025h.002Zm.026-2.377c.77-.05 1.522-.025 2.243-.163 1.067-.205 1.596-.97 1.582-2.08-.013-1.056-.631-1.871-1.662-2.04-.7-.114-1.422-.088-2.163-.126v4.409Zm-37.889 3.138v5.065h-3.979V15.63c.089-.012.182-.035.276-.035 1.978 0 3.957-.05 5.931.033.886.037 1.8.23 2.63.546 1.829.698 2.74 2.147 2.891 4.065.163 2.059-.544 4.165-2.674 5.294-1.039.552-2.165.697-3.315.729-.575.015-1.15.003-1.76.003v-.002Zm.01-3.221c.598 0 1.179.055 1.745-.01 1.152-.135 1.882-.895 1.949-1.94.069-1.072-.493-1.974-1.513-2.202-.7-.155-1.439-.132-2.18-.19v4.343-.001Zm57.351 8.299h-4.047V18.713h-1.643c-.608 0-1.214-.002-1.822 0-.188 0-.336-.018-.334-.264.005-.93.001-1.857.001-2.822h11.56v3.077h-3.715V31.34ZM71.097 48.843c-1.023 0-1.967.012-2.912-.013-.136-.003-.317-.152-.396-.282-.716-1.18-1.414-2.37-2.12-3.558-.086-.145-.174-.288-.284-.468-.083.123-.154.217-.214.316-.738 1.232-1.479 2.462-2.205 3.702-.13.22-.264.315-.529.31-.926-.018-1.852-.007-2.855-.007l1.597-2.524c.81-1.272 1.614-2.547 2.434-3.81.145-.221.143-.375 0-.598-1.073-1.671-2.132-3.352-3.194-5.03-.111-.176-.219-.356-.37-.602.823 0 1.593.05 2.353-.016.636-.054.986.16 1.281.725.508.97 1.11 1.89 1.69 2.86.675-1.098 1.34-2.16 1.983-3.235.146-.244.298-.348.594-.34.897.02 1.795.006 2.769.006-.253.403-.465.744-.68 1.085-.953 1.497-1.895 3.001-2.865 4.486-.188.286-.163.47.01.74 1.225 1.925 2.43 3.861 3.643 5.795.08.129.153.262.268.456l.002.002Zm70.999-12.563-4.216 12.563c-.926 0-1.829.01-2.731-.014-.104-.004-.258-.179-.298-.304-.937-2.86-1.861-5.724-2.787-8.587-.389-1.202-.776-2.406-1.172-3.637h2.851l2.689 8.341c.372-1.105.714-2.126 1.059-3.148.546-1.625 1.099-3.248 1.635-4.877.085-.256.198-.35.473-.343.815.02 1.63.007 2.501.007l-.004-.002Zm-85.329 10.4v2.136h-7.43V36.315h7.419v2.075h-4.623v3.092h4.637v2.093h-4.64v3.105h4.636Zm31.377 2.135v-12.51h2.746v10.373h4.43v2.137h-7.176Zm37.006-12.516h2.718v12.516h-2.718V36.299Z" fill="#6F6F6F"/><path d="M16.803 12.181a1.76 1.76 0 0 1 .098-.025l-.05.074-.05-.049h.003Z" fill="#F6FAF8"/><path d="m21.076 12.133-.063-.038.067.035-.004.003Z" fill="#F4F9F7"/><path d="m17.046 12.066.02.025c-.008.005-.019.018-.026.016-.009 0-.014-.014-.021-.023l.027-.018Z" fill="#F6FAF8"/></svg>